<?xml version="1.0" encoding="UTF-8" standalone="no"?>
<!DOCTYPE svg PUBLIC "-//W3C//DTD SVG 1.1//EN" "http://www.w3.org/Graphics/SVG/1.1/DTD/svg11.dtd">
<svg width="100%" height="100%" viewBox="0 0 24 24" version="1.1" xmlns="http://www.w3.org/2000/svg" xmlns:xlink="http://www.w3.org/1999/xlink" xml:space="preserve" xmlns:serif="http://www.serif.com/" style="fill-rule:evenodd;clip-rule:evenodd;stroke-linejoin:round;stroke-miterlimit:1.41421;">
    <g id="Line_Icons">
        <g transform="matrix(1.02503,0,0,1.02503,-0.300333,-0.300308)">
            <path d="M2,17.999L4.586,17.999L0.293,22.292L1.707,23.706L6,19.413L6,21.999L8,21.999L8,15.999L2,15.999L2,17.999Z" style="fill:rgb(117,117,117);fill-rule:nonzero;"/>
        </g>
        <g transform="matrix(1.02503,0,0,1.02503,-0.300333,-0.300308)">
            <path d="M18,4.585L18,1.999L16,1.999L16,7.999L22,7.999L22,5.999L19.414,5.999L23.707,1.706L22.293,0.292L18,4.585Z" style="fill:rgb(117,117,117);fill-rule:nonzero;"/>
        </g>
        <g transform="matrix(1.02503,0,0,1.02503,-0.300333,-0.300308)">
            <path d="M22,17.999L22,15.999L16,15.999L16,21.999L18,21.999L18,19.413L22.293,23.706L23.707,22.292L19.414,17.999L22,17.999Z" style="fill:rgb(117,117,117);fill-rule:nonzero;"/>
        </g>
        <g transform="matrix(1.02503,0,0,1.02503,-0.300333,-0.300308)">
            <path d="M2,5.999L2,7.999L8,7.999L8,1.999L6,1.999L6,4.585L1.707,0.292L0.293,1.706L4.586,5.999L2,5.999Z" style="fill:rgb(117,117,117);fill-rule:nonzero;"/>
        </g>
        <g transform="matrix(1.02503,0,0,1.02503,-0.300333,-0.300308)">
            <path d="M16,9.999C16,8.895 15.104,7.999 14,7.999L10,7.999C8.896,7.999 8,8.895 8,9.999L8,13.999C8,15.103 8.896,15.999 10,15.999L14,15.999C15.104,15.999 16,15.103 16,13.999L16,9.999ZM13.997,13.999L10,13.999L10,9.999L14,9.999L13.997,13.999Z" style="fill:rgb(117,117,117);fill-rule:nonzero;"/>
        </g>
    </g>
</svg>
