<?xml version="1.0" encoding="UTF-8" standalone="no"?>
<!DOCTYPE svg PUBLIC "-//W3C//DTD SVG 1.1//EN" "http://www.w3.org/Graphics/SVG/1.1/DTD/svg11.dtd">
<svg width="100%" height="100%" viewBox="0 0 24 24" version="1.1" xmlns="http://www.w3.org/2000/svg" xmlns:xlink="http://www.w3.org/1999/xlink" xml:space="preserve" xmlns:serif="http://www.serif.com/" style="fill-rule:evenodd;clip-rule:evenodd;stroke-linejoin:round;stroke-miterlimit:1.41421;">
    <g id="Line_Icons" transform="matrix(0.8125,0,0,0.792007,2.25,1.07506)">
        <g transform="matrix(1.75824,0,0,1.68349,-14.3736,-1.35738)">
            <path d="M17.414,0L10,0C8.897,0 8,0.898 8,2L8,16C8,17.103 8.897,18 10,18L20,18C21.103,18 22,17.103 22,16L22,4.586L17.414,0ZM20.001,16L10,16L10,2L16,2L16,6L20,6L20.001,16Z" style="fill:rgb(117,117,117);fill-rule:nonzero;"/>
        </g>
        <g transform="matrix(0.923077,0,0,0.923077,0.923077,1.88663)">
            <g transform="matrix(1,0,0,1,0,5.52523)">
                <path d="M11,6.415L11,16.001L13,16.001L13,6.415L16.293,9.708L17.707,8.294L12,2.587L6.293,8.294L7.707,9.708L11,6.415Z" style="fill:rgb(117,117,117);fill-rule:nonzero;"/>
            </g>
            <g transform="matrix(1,0,0,1,0,2.52523)">
                <path d="M18,18.001L18,20.001L6,20.001L6,18.001L4,18.001L4,20.001C4,21.103 4.896,22.001 6,22.001L18,22.001C19.104,22.001 20,21.103 20,20.001L20,18.001L18,18.001Z" style="fill:rgb(117,117,117);fill-rule:nonzero;"/>
            </g>
        </g>
    </g>
</svg>
