<?xml version="1.0" encoding="UTF-8" standalone="no"?>
<!DOCTYPE svg PUBLIC "-//W3C//DTD SVG 1.1//EN" "http://www.w3.org/Graphics/SVG/1.1/DTD/svg11.dtd">
<svg width="100%" height="100%" viewBox="0 0 24 24" version="1.1" xmlns="http://www.w3.org/2000/svg" xmlns:xlink="http://www.w3.org/1999/xlink" xml:space="preserve" xmlns:serif="http://www.serif.com/" style="fill-rule:evenodd;clip-rule:evenodd;stroke-linejoin:round;stroke-miterlimit:1.41421;">
    <path d="M6.143,23L1.857,23C1.384,23 1,22.616 1,22.143L1,17.857C1,17.384 1.384,17 1.857,17L6.143,17C6.616,17 7,17.384 7,17.857L7,22.143C7,22.616 6.616,23 6.143,23ZM14.143,23L9.857,23C9.384,23 9,22.616 9,22.143L9,17.857C9,17.384 9.384,17 9.857,17L14.143,17C14.616,17 15,17.384 15,17.857L15,22.143C15,22.616 14.616,23 14.143,23ZM22.143,23L17.857,23C17.384,23 17,22.616 17,22.143L17,17.857C17,17.384 17.384,17 17.857,17L22.143,17C22.616,17 23,17.384 23,17.857L23,22.143C23,22.616 22.616,23 22.143,23ZM5.568,18.435L2.432,18.435L2.432,21.565L5.568,21.565L5.568,18.435ZM13.568,18.435L10.432,18.435L10.432,21.565L13.568,21.565L13.568,18.435ZM21.568,18.435L18.432,18.435L18.432,21.565L21.568,21.565L21.568,18.435ZM6.169,15L1.883,15C1.41,15 1.026,14.616 1.026,14.143L1.026,9.857C1.026,9.384 1.41,9 1.883,9L6.169,9C6.642,9 7.026,9.384 7.026,9.857L7.026,14.143C7.026,14.616 6.642,15 6.169,15ZM14.169,15L9.883,15C9.41,15 9.026,14.616 9.026,14.143L9.026,9.857C9.026,9.384 9.41,9 9.883,9L14.169,9C14.642,9 15.026,9.384 15.026,9.857L15.026,14.143C15.026,14.616 14.642,15 14.169,15ZM22.169,15L17.883,15C17.41,15 17.026,14.616 17.026,14.143L17.026,9.857C17.026,9.384 17.41,9 17.883,9L22.169,9C22.642,9 23.026,9.384 23.026,9.857L23.026,14.143C23.026,14.616 22.642,15 22.169,15ZM5.595,10.435L2.458,10.435L2.458,13.565L5.595,13.565L5.595,10.435ZM13.595,10.435L10.458,10.435L10.458,13.565L13.595,13.565L13.595,10.435ZM21.595,10.435L18.458,10.435L18.458,13.565L21.595,13.565L21.595,10.435ZM6.143,7L1.857,7C1.384,7 1,6.616 1,6.143L1,1.857C1,1.384 1.384,1 1.857,1L6.143,1C6.616,1 7,1.384 7,1.857L7,6.143C7,6.616 6.616,7 6.143,7ZM14.143,7L9.857,7C9.384,7 9,6.616 9,6.143L9,1.857C9,1.384 9.384,1 9.857,1L14.143,1C14.616,1 15,1.384 15,1.857L15,6.143C15,6.616 14.616,7 14.143,7ZM22.143,7L17.857,7C17.384,7 17,6.616 17,6.143L17,1.857C17,1.384 17.384,1 17.857,1L22.143,1C22.616,1 23,1.384 23,1.857L23,6.143C23,6.616 22.616,7 22.143,7ZM5.568,2.435L2.432,2.435L2.432,5.565L5.568,5.565L5.568,2.435ZM13.568,2.435L10.432,2.435L10.432,5.565L13.568,5.565L13.568,2.435ZM21.568,2.435L18.432,2.435L18.432,5.565L21.568,5.565L21.568,2.435Z" style="fill:rgb(117,117,117);fill-rule:nonzero;"/>
</svg>
