<?xml version="1.0" encoding="UTF-8" standalone="no"?>
<!DOCTYPE svg PUBLIC "-//W3C//DTD SVG 1.1//EN" "http://www.w3.org/Graphics/SVG/1.1/DTD/svg11.dtd">
<svg width="100%" height="100%" viewBox="0 0 24 24" version="1.1" xmlns="http://www.w3.org/2000/svg" xmlns:xlink="http://www.w3.org/1999/xlink" xml:space="preserve" xmlns:serif="http://www.serif.com/" style="fill-rule:evenodd;clip-rule:evenodd;stroke-linejoin:round;stroke-miterlimit:1.41421;">
    <path d="M16.496,1L21.167,5.586L21.167,21C21.167,22.103 20.253,23 19.13,23L4.87,23C3.747,23 2.833,22.103 2.833,21L2.833,3C2.833,1.898 3.747,1 4.87,1L16.496,1ZM15.056,7L15.056,3L4.87,3L4.87,21L19.131,21L19.13,7L15.056,7ZM9.55,12.1L8.328,12.1C8.328,10.28 9.972,8.8 11.994,8.8C14.017,8.8 15.661,10.28 15.661,12.1L15.661,13.353C16.025,13.544 16.272,13.895 16.272,14.3L16.272,18.7C16.272,19.307 15.725,19.8 15.05,19.8L8.939,19.8C8.264,19.8 7.717,19.307 7.717,18.7L7.717,14.3C7.717,13.693 8.264,13.2 8.939,13.2L14.439,13.2L14.439,12.1C14.439,10.887 13.342,9.9 11.994,9.9C10.647,9.9 9.55,10.887 9.55,12.1ZM15.05,14.3L8.939,14.3L8.939,18.7L15.048,18.7L15.049,18.15L13.828,18.15L13.828,17.05L15.049,17.05L15.049,16.5L13.828,16.5L13.828,15.4L15.049,15.4L15.05,14.3Z" style="fill:rgb(117,117,117);fill-rule:nonzero;"/>
</svg>
