<?xml version="1.0" encoding="UTF-8" standalone="no"?>
<!DOCTYPE svg PUBLIC "-//W3C//DTD SVG 1.1//EN" "http://www.w3.org/Graphics/SVG/1.1/DTD/svg11.dtd">
<svg width="100%" height="100%" viewBox="0 0 24 24" version="1.1" xmlns="http://www.w3.org/2000/svg" xmlns:xlink="http://www.w3.org/1999/xlink" xml:space="preserve" xmlns:serif="http://www.serif.com/" style="fill-rule:evenodd;clip-rule:evenodd;stroke-linejoin:round;stroke-miterlimit:1.41421;">
    <path d="M16.496,1L21.167,5.586L21.167,21C21.167,22.103 20.253,23 19.13,23L4.87,23C3.747,23 2.833,22.103 2.833,21L2.833,3C2.833,1.898 3.747,1 4.87,1L16.496,1ZM15.056,7L15.056,3L4.87,3L4.87,21L19.131,21L19.13,7L15.056,7ZM15.75,19.292L8.25,19.292C7.56,19.292 7,18.745 7,18.073L7,16.855L8.25,16.855L8.25,18.073L15.75,18.073L15.75,16.855L17,16.855L17,18.073C17,18.745 16.44,19.292 15.75,19.292ZM11.375,11.624L11.375,17.464L12.625,17.464L12.625,11.624L14.683,13.63L15.567,12.769L12,9.292L8.433,12.769L9.317,13.63L11.375,11.624Z" style="fill:rgb(117,117,117);fill-rule:nonzero;"/>
</svg>
