<?xml version="1.0" encoding="UTF-8" standalone="no"?>
<!DOCTYPE svg PUBLIC "-//W3C//DTD SVG 1.1//EN" "http://www.w3.org/Graphics/SVG/1.1/DTD/svg11.dtd">
<svg width="100%" height="100%" viewBox="0 0 24 24" version="1.1" xmlns="http://www.w3.org/2000/svg" xmlns:xlink="http://www.w3.org/1999/xlink" xml:space="preserve" xmlns:serif="http://www.serif.com/" style="fill-rule:evenodd;clip-rule:evenodd;stroke-linejoin:round;stroke-miterlimit:1.41421;">
    <g id="Line_Icons" transform="matrix(0.74479,0,0,0.726005,3.06252,1.98549)">
        <g transform="matrix(1.36752,0,0,1.3774,-4.41027,-2.7348)">
            <path d="M16.414,1L5,1C3.897,1 3,1.898 3,3L3,21C3,22.103 3.897,23 5,23L19,23C20.103,23 21,22.103 21,21L21,5.586L16.414,1ZM5,21L5,3L15,3L15,7L19,7L19.001,21L5,21Z" style="fill:rgb(117,117,117);fill-rule:nonzero;"/>
        </g>
        <g transform="matrix(1.34266,0,0,1.3774,-4.11192,-2.73482)">
            <path d="M8.25,18.073L15.75,18.073L15.75,16.855L17,16.855L17,18.073C17,18.745 16.44,19.292 15.75,19.292L8.25,19.292C7.56,19.292 7,18.745 7,18.073L7,16.855L8.25,16.855L8.25,18.073ZM11.375,11.624L11.375,17.464L12.625,17.464L12.625,11.624L14.683,13.63L15.567,12.769L12,9.292L8.433,12.769L9.317,13.63L11.375,11.624Z" style="fill:rgb(117,117,117);fill-rule:nonzero;"/>
        </g>
    </g>
</svg>
