<?xml version="1.0" encoding="UTF-8" standalone="no"?>
<!DOCTYPE svg PUBLIC "-//W3C//DTD SVG 1.1//EN" "http://www.w3.org/Graphics/SVG/1.1/DTD/svg11.dtd">
<svg width="100%" height="100%" viewBox="0 0 24 24" version="1.1" xmlns="http://www.w3.org/2000/svg" xmlns:xlink="http://www.w3.org/1999/xlink" xml:space="preserve" xmlns:serif="http://www.serif.com/" style="fill-rule:evenodd;clip-rule:evenodd;stroke-linejoin:round;stroke-miterlimit:1.41421;">
    <path d="M6.143,23L1.857,23C1.384,23 1,22.615 1,22.141L1,17.846C1,17.372 1.384,16.987 1.857,16.987L6.143,16.987C6.616,16.987 7,17.372 7,17.846L7,22.141C7,22.615 6.616,23 6.143,23ZM14.143,23L9.857,23C9.384,23 9,22.615 9,22.141L9,17.846C9,17.372 9.384,16.987 9.857,16.987L14.143,16.987C14.616,16.987 15,17.372 15,17.846L15,22.141C15,22.615 14.616,23 14.143,23ZM22.143,23L17.857,23C17.384,23 17,22.615 17,22.141L17,17.846C17,17.372 17.384,16.987 17.857,16.987L22.143,16.987C22.616,16.987 23,17.372 23,17.846L23,22.141C23,22.615 22.616,23 22.143,23ZM13.434,18.557L10.566,18.557L10.566,21.43L13.434,21.43L13.434,18.557ZM5.434,18.557L2.566,18.557L2.566,21.43L5.434,21.43L5.434,18.557ZM21.434,18.557L18.566,18.557L18.566,21.43L21.434,21.43L21.434,18.557ZM6.143,15.015L1.857,15.015C1.384,15.015 1,14.631 1,14.156L1,9.862C1,9.387 1.384,9.003 1.857,9.003L6.143,9.003C6.616,9.003 7,9.387 7,9.862L7,14.156C7,14.631 6.616,15.015 6.143,15.015ZM22.143,15.015L17.857,15.015C17.384,15.015 17,14.631 17,14.156L17,9.862C17,9.387 17.384,9.003 17.857,9.003L22.143,9.003C22.616,9.003 23,9.387 23,9.862L23,14.156C23,14.631 22.616,15.015 22.143,15.015ZM14.136,15.009L9.851,15.009C9.379,15.009 8.994,14.623 8.994,14.15L8.994,9.855C8.994,9.382 9.379,8.996 9.851,8.996L14.136,8.996C14.609,8.996 14.994,9.382 14.994,9.855L14.994,14.15C14.994,14.623 14.609,15.009 14.136,15.009ZM21.434,10.572L18.566,10.572L18.566,13.446L21.434,13.446L21.434,10.572ZM5.434,10.572L2.566,10.572L2.566,13.446L5.434,13.446L5.434,10.572ZM13.427,10.566L10.56,10.566L10.56,13.439L13.427,13.439L13.427,10.566ZM6.143,7.013L1.857,7.013C1.384,7.013 1,6.628 1,6.154L1,1.859C1,1.385 1.384,1 1.857,1L6.143,1C6.616,1 7,1.385 7,1.859L7,6.154C7,6.628 6.616,7.013 6.143,7.013ZM14.143,7.013L9.857,7.013C9.384,7.013 9,6.628 9,6.154L9,1.859C9,1.385 9.384,1 9.857,1L14.143,1C14.616,1 15,1.385 15,1.859L15,6.154C15,6.628 14.616,7.013 14.143,7.013ZM22.143,7.013L17.857,7.013C17.384,7.013 17,6.628 17,6.154L17,1.859C17,1.385 17.384,1 17.857,1L22.143,1C22.616,1 23,1.385 23,1.859L23,6.154C23,6.628 22.616,7.013 22.143,7.013ZM21.434,2.57L18.566,2.57L18.566,5.443L21.434,5.443L21.434,2.57ZM13.434,2.57L10.566,2.57L10.566,5.443L13.434,5.443L13.434,2.57ZM5.434,2.57L2.566,2.57L2.566,5.443L5.434,5.443L5.434,2.57Z" style="fill:rgb(117,117,117);fill-rule:nonzero;"/>
</svg>
