<?xml version="1.0" encoding="UTF-8" standalone="no"?>
<!DOCTYPE svg PUBLIC "-//W3C//DTD SVG 1.1//EN" "http://www.w3.org/Graphics/SVG/1.1/DTD/svg11.dtd">
<svg width="100%" height="100%" viewBox="0 0 24 24" version="1.1" xmlns="http://www.w3.org/2000/svg" xmlns:xlink="http://www.w3.org/1999/xlink" xml:space="preserve" xmlns:serif="http://www.serif.com/" style="fill-rule:evenodd;clip-rule:evenodd;stroke-linejoin:round;stroke-miterlimit:1.41421;">
    <g id="Line_Icons" transform="matrix(1,0,0,1,0,-0.8)">
        <path d="M14.439,13.2L14.439,12.1C14.439,10.887 13.342,9.9 11.994,9.9C10.647,9.9 9.55,10.887 9.55,12.1L8.328,12.1C8.328,10.28 9.972,8.8 11.994,8.8C14.017,8.8 15.661,10.28 15.661,12.1L15.661,13.353C16.025,13.544 16.272,13.895 16.272,14.3L16.272,18.7C16.272,19.307 15.725,19.8 15.05,19.8L8.939,19.8C8.264,19.8 7.717,19.307 7.717,18.7L7.717,14.3C7.717,13.693 8.264,13.2 8.939,13.2L14.439,13.2ZM15.049,15.4L15.05,14.3L8.939,14.3L8.939,18.7L15.048,18.7L15.049,18.15L13.828,18.15L13.828,17.05L15.049,17.05L15.049,16.5L13.828,16.5L13.828,15.4L15.049,15.4Z" style="fill:rgb(117,117,117);fill-rule:nonzero;"/>
    </g>
    <g transform="matrix(1.01852,0,0,1,-0.222208,9.89394e-06)">
        <path d="M16.414,1L5,1C3.897,1 3,1.898 3,3L3,21C3,22.103 3.897,23 5,23L19,23C20.103,23 21,22.103 21,21L21,5.586L16.414,1ZM5,21L5,3L15,3L15,7L19,7L19.001,21L5,21Z" style="fill:rgb(117,117,117);fill-rule:nonzero;"/>
    </g>
</svg>
