<?xml version="1.0" encoding="UTF-8" standalone="no"?>
<!DOCTYPE svg PUBLIC "-//W3C//DTD SVG 1.1//EN" "http://www.w3.org/Graphics/SVG/1.1/DTD/svg11.dtd">
<svg width="100%" height="100%" viewBox="0 0 24 24" version="1.1" xmlns="http://www.w3.org/2000/svg" xmlns:xlink="http://www.w3.org/1999/xlink" xml:space="preserve" xmlns:serif="http://www.serif.com/" style="fill-rule:evenodd;clip-rule:evenodd;stroke-linejoin:round;stroke-miterlimit:1.41421;">
    <path d="M21.081,2.919C19.896,1.735 17.831,1.734 16.645,2.919L5.314,14.25C5.238,14.327 5.174,14.414 5.126,14.511L2.105,20.554C1.913,20.939 1.988,21.405 2.293,21.707C2.596,22.012 3.062,22.088 3.446,21.895L9.489,18.874C9.585,18.826 9.674,18.763 9.749,18.686L21.081,7.354C22.266,6.169 22.265,4.104 21.081,2.919ZM8.45,17.157L5.235,18.765L6.843,15.549L15.842,6.552L17.449,8.16L8.45,17.157ZM19.667,5.942L18.864,6.746L17.257,5.138L18.061,4.334C18.491,3.904 19.239,3.905 19.668,4.334C20.11,4.777 20.11,5.499 19.667,5.942Z" style="fill:rgb(117,117,117);fill-rule:nonzero;"/>
</svg>
