<?xml version="1.0" encoding="UTF-8" standalone="no"?>
<!DOCTYPE svg PUBLIC "-//W3C//DTD SVG 1.1//EN" "http://www.w3.org/Graphics/SVG/1.1/DTD/svg11.dtd">
<svg width="100%" height="100%" viewBox="0 0 24 24" version="1.1" xmlns="http://www.w3.org/2000/svg" xmlns:xlink="http://www.w3.org/1999/xlink" xml:space="preserve" xmlns:serif="http://www.serif.com/" style="fill-rule:evenodd;clip-rule:evenodd;stroke-linejoin:round;stroke-miterlimit:1.41421;">
    <path d="M2.833,17.499L2.833,19.87L5.852,16.851L7.148,18.147L4.13,21.166L6.5,21.166L6.5,22.999L1,22.999L1,17.499L2.833,17.499ZM19.871,21.166L16.852,18.147L18.148,16.851L21.167,19.87L21.167,17.499L23,17.499L23,22.999L17.5,22.999L17.5,21.166L19.871,21.166ZM14.75,7.416C15.762,7.416 16.583,8.238 16.583,9.249L16.583,14.749C16.583,15.761 15.762,16.582 14.75,16.582L9.25,16.582C8.238,16.582 7.417,15.761 7.417,14.749L7.417,9.249C7.417,8.237 8.238,7.416 9.25,7.416L14.75,7.416ZM14.747,14.749L14.75,9.249L9.25,9.249L9.25,14.749L14.747,14.749ZM23,0.999L23,6.499L21.167,6.499L21.167,4.129L18.148,7.147L16.852,5.851L19.871,2.832L17.5,2.832L17.5,0.999L23,0.999ZM6.5,0.999L6.5,2.832L4.13,2.832L7.148,5.851L5.852,7.147L2.833,4.129L2.833,6.499L1,6.499L1,0.999L6.5,0.999Z" style="fill:rgb(117,117,117);fill-rule:nonzero;"/>
</svg>
