<?xml version="1.0" encoding="UTF-8" standalone="no"?>
<!DOCTYPE svg PUBLIC "-//W3C//DTD SVG 1.1//EN" "http://www.w3.org/Graphics/SVG/1.1/DTD/svg11.dtd">
<svg width="100%" height="100%" viewBox="0 0 24 24" version="1.1" xmlns="http://www.w3.org/2000/svg" xmlns:xlink="http://www.w3.org/1999/xlink" xml:space="preserve" xmlns:serif="http://www.serif.com/" style="fill-rule:evenodd;clip-rule:evenodd;stroke-linejoin:round;stroke-miterlimit:1.41421;">
    <g id="Line_Icons">
        <path d="M18,1.999L20.586,1.999L17.293,5.292L18.707,6.706L22,3.413L22,5.999L24,5.999L24,-0.001L18,-0.001L18,1.999Z" style="fill:rgb(117,117,117);fill-rule:nonzero;"/>
        <path d="M5.293,17.292L2,20.585L2,17.999L0,17.999L0,23.999L6,23.999L6,21.999L3.414,21.999L6.707,18.706L5.293,17.292Z" style="fill:rgb(117,117,117);fill-rule:nonzero;"/>
        <path d="M6,1.999L6,-0.001L0,-0.001L0,5.999L2,5.999L2,3.413L5.293,6.706L6.707,5.292L3.414,1.999L6,1.999Z" style="fill:rgb(117,117,117);fill-rule:nonzero;"/>
        <path d="M22,20.585L18.707,17.292L17.293,18.706L20.586,21.999L18,21.999L18,23.999L24,23.999L24,17.999L22,17.999L22,20.585Z" style="fill:rgb(117,117,117);fill-rule:nonzero;"/>
        <path d="M15,6.999L9,6.999C7.896,6.999 7,7.895 7,8.999L7,14.999C7,16.103 7.896,16.999 9,16.999L15,16.999C16.104,16.999 17,16.103 17,14.999L17,8.999C17,7.896 16.104,6.999 15,6.999ZM14.997,14.999L9,14.999L9,8.999L15,8.999L14.997,14.999Z" style="fill:rgb(117,117,117);fill-rule:nonzero;"/>
    </g>
</svg>
