<?xml version="1.0" encoding="UTF-8" standalone="no"?>
<!DOCTYPE svg PUBLIC "-//W3C//DTD SVG 1.1//EN" "http://www.w3.org/Graphics/SVG/1.1/DTD/svg11.dtd">
<svg width="100%" height="100%" viewBox="0 0 24 24" version="1.1" xmlns="http://www.w3.org/2000/svg" xmlns:xlink="http://www.w3.org/1999/xlink" xml:space="preserve" xmlns:serif="http://www.serif.com/" style="fill-rule:evenodd;clip-rule:evenodd;stroke-linejoin:round;stroke-miterlimit:1.41421;">
    <path d="M11.067,22.637C11.499,23.12 12.502,23.12 12.934,22.637L18.663,16.221C18.912,15.941 18.945,15.574 18.748,15.269C18.552,14.963 18.159,14.771 17.729,14.771L6.271,14.771C5.841,14.771 5.448,14.963 5.252,15.269C5.055,15.574 5.088,15.941 5.337,16.221L11.067,22.637ZM15.503,16.605L12,20.527L8.497,16.605L15.503,16.605ZM21.167,11.082L21.167,12.916L2.833,12.916L2.833,11.082L21.167,11.082ZM12.932,1.383C12.717,1.142 12.368,0.999 11.999,0.999C11.63,0.999 11.282,1.142 11.067,1.383L5.337,7.8C5.089,8.079 5.056,8.447 5.253,8.751C5.447,9.057 5.84,9.249 6.27,9.249L17.728,9.249C18.158,9.249 18.551,9.057 18.747,8.751C18.944,8.447 18.91,8.079 18.661,7.8L12.932,1.383ZM8.496,7.416L11.999,3.493L15.502,7.416L8.496,7.416Z" style="fill:rgb(117,117,117);fill-rule:nonzero;"/>
</svg>
