<?xml version="1.0" encoding="UTF-8" standalone="no"?>
<!DOCTYPE svg PUBLIC "-//W3C//DTD SVG 1.1//EN" "http://www.w3.org/Graphics/SVG/1.1/DTD/svg11.dtd">
<svg width="100%" height="100%" viewBox="0 0 24 24" version="1.1" xmlns="http://www.w3.org/2000/svg" xmlns:xlink="http://www.w3.org/1999/xlink" xml:space="preserve" xmlns:serif="http://www.serif.com/" style="fill-rule:evenodd;clip-rule:evenodd;stroke-linejoin:round;stroke-miterlimit:1.41421;">
    <path d="M21.502,23L2.502,23L2.502,21.388C2.502,15.694 6.409,11.718 12.002,11.718C17.595,11.718 21.502,15.694 21.502,21.388L21.502,23ZM5.066,19.777L18.94,19.777C18.229,16.863 15.575,14.941 12.003,14.941C8.432,14.941 5.777,16.863 5.066,19.777ZM2.861,16.583L1,16.583L1,15.912C1,13.539 2.429,11.882 4.475,11.882C5.147,11.882 5.752,12.061 6.222,12.381L6.193,12.396L5.073,13.32L4.476,13.226C3.169,13.226 2.198,14.026 1.938,15.24L3.539,15.24L2.861,16.583ZM22.062,15.24C21.802,14.026 20.831,13.226 19.524,13.226L18.927,13.32L17.807,12.396L17.778,12.381C18.248,12.061 18.853,11.882 19.525,11.882C21.571,11.882 23,13.539 23,15.912L23,16.583L21.139,16.583L20.461,15.24L22.062,15.24ZM19.549,11.177C20.68,11.177 21.6,10.334 21.6,9.297C21.6,8.26 20.68,7.417 19.549,7.417C18.417,7.417 17.497,8.26 17.497,9.297C17.497,10.334 18.417,11.177 19.549,11.177ZM4.475,11.177C3.344,11.177 2.424,10.334 2.424,9.297C2.424,8.26 3.344,7.417 4.475,7.417C5.607,7.417 6.527,8.26 6.527,9.297C6.527,10.334 5.607,11.177 4.475,11.177ZM19.549,8.357C20.114,8.357 20.574,8.778 20.574,9.297C20.574,9.816 20.114,10.237 19.549,10.237C18.983,10.237 18.523,9.816 18.523,9.297C18.523,8.778 18.983,8.357 19.549,8.357ZM4.475,8.357C3.91,8.357 3.45,8.778 3.45,9.297C3.45,9.816 3.91,10.237 4.475,10.237C5.041,10.237 5.501,9.816 5.501,9.297C5.501,8.778 5.041,8.357 4.475,8.357ZM12.002,10.026C9.287,10.026 7.079,8.002 7.079,5.513C7.079,3.025 9.287,1 12.002,1C14.717,1 16.925,3.025 16.925,5.513C16.925,8.002 14.717,10.026 12.002,10.026ZM12.002,3.256C10.644,3.256 9.54,4.267 9.54,5.513C9.54,6.757 10.644,7.769 12.002,7.769C13.36,7.769 14.464,6.757 14.464,5.513C14.464,4.267 13.36,3.256 12.002,3.256Z" style="fill:rgb(117,117,117);fill-rule:nonzero;"/>
</svg>
