<?xml version="1.0" encoding="UTF-8" standalone="no"?>
<!DOCTYPE svg PUBLIC "-//W3C//DTD SVG 1.1//EN" "http://www.w3.org/Graphics/SVG/1.1/DTD/svg11.dtd">
<svg width="100%" height="100%" viewBox="0 0 24 24" version="1.1" xmlns="http://www.w3.org/2000/svg" xmlns:xlink="http://www.w3.org/1999/xlink" xml:space="preserve" xmlns:serif="http://www.serif.com/" style="fill-rule:evenodd;clip-rule:evenodd;stroke-linejoin:round;stroke-miterlimit:1.41421;">
    <g id="Line_Icons" transform="matrix(1,0,0,0.916669,2.22045e-16,0.999973)">
        <g transform="matrix(1.23077,0,0,1.23077,-2.76969,-4.93046)">
            <path d="M12.002,12.006C9.796,12.006 8.002,10.212 8.002,8.006C8.002,5.801 9.796,4.006 12.002,4.006C14.208,4.006 16.002,5.801 16.002,8.006C16.002,10.212 14.208,12.006 12.002,12.006ZM12.002,6.006C10.899,6.006 10.002,6.902 10.002,8.006C10.002,9.109 10.899,10.006 12.002,10.006C13.105,10.006 14.002,9.109 14.002,8.006C14.002,6.902 13.105,6.006 12.002,6.006Z" style="fill:rgb(117,117,117);fill-rule:nonzero;"/>
        </g>
        <g transform="matrix(1.4018,0,0,1.75824,-4.82241,-11.1754)">
            <path d="M18.779,20.006L5.225,20.006L5.225,19.006C5.225,15.473 8.012,13.006 12.002,13.006C15.992,13.006 18.779,15.473 18.779,19.006L18.779,20.006ZM7.054,18.006L16.951,18.006C16.444,16.198 14.551,15.006 12.003,15.006C9.455,15.006 7.561,16.198 7.054,18.006Z" style="fill:rgb(117,117,117);fill-rule:nonzero;"/>
        </g>
        <g transform="matrix(0.512821,0,0,0.512821,-1.67949,4.94564)">
            <path d="M12.002,12.006C9.796,12.006 8.002,10.212 8.002,8.006C8.002,5.801 9.796,4.006 12.002,4.006C14.208,4.006 16.002,5.801 16.002,8.006C16.002,10.212 14.208,12.006 12.002,12.006ZM12.002,6.006C10.899,6.006 10.002,6.902 10.002,8.006C10.002,9.109 10.899,10.006 12.002,10.006C13.105,10.006 14.002,9.109 14.002,8.006C14.002,6.902 13.105,6.006 12.002,6.006Z" style="fill:rgb(117,117,117);fill-rule:nonzero;"/>
        </g>
        <g transform="matrix(0.512821,0,0,0.732601,-1.67949,2.34359)">
            <path d="M8.853,20.006L5.225,20.006L5.225,19.006C5.225,15.473 8.012,13.006 12.002,13.006C13.311,13.006 14.491,13.272 15.407,13.748L15.352,13.77L13.167,15.147L12.003,15.006C9.455,15.006 7.561,16.198 7.054,18.006L10.176,18.006L8.853,20.006Z" style="fill:rgb(117,117,117);"/>
        </g>
        <g transform="matrix(-0.512821,0,0,0.512821,25.7036,4.94564)">
            <path d="M12.002,12.006C9.796,12.006 8.002,10.212 8.002,8.006C8.002,5.801 9.796,4.006 12.002,4.006C14.208,4.006 16.002,5.801 16.002,8.006C16.002,10.212 14.208,12.006 12.002,12.006ZM12.002,6.006C10.899,6.006 10.002,6.902 10.002,8.006C10.002,9.109 10.899,10.006 12.002,10.006C13.105,10.006 14.002,9.109 14.002,8.006C14.002,6.902 13.105,6.006 12.002,6.006Z" style="fill:rgb(117,117,117);fill-rule:nonzero;"/>
        </g>
        <g transform="matrix(-0.512821,0,0,0.732601,25.6795,2.34359)">
            <path d="M8.853,20.006L5.225,20.006L5.225,19.006C5.225,15.473 8.012,13.006 12.002,13.006C13.311,13.006 14.491,13.272 15.407,13.748L15.352,13.77L13.167,15.147L12.003,15.006C9.455,15.006 7.561,16.198 7.054,18.006L10.176,18.006L8.853,20.006Z" style="fill:rgb(117,117,117);"/>
        </g>
    </g>
</svg>
