<?xml version="1.0" encoding="UTF-8" standalone="no"?>
<!DOCTYPE svg PUBLIC "-//W3C//DTD SVG 1.1//EN" "http://www.w3.org/Graphics/SVG/1.1/DTD/svg11.dtd">
<svg width="100%" height="100%" viewBox="0 0 24 24" version="1.1" xmlns="http://www.w3.org/2000/svg" xmlns:xlink="http://www.w3.org/1999/xlink" xml:space="preserve" xmlns:serif="http://www.serif.com/" style="fill-rule:evenodd;clip-rule:evenodd;stroke-linejoin:round;stroke-miterlimit:1.41421;">
    <g id="Line_Icons">
        <g transform="matrix(1.2,0,0,1.2,-2.4,-2.4)">
            <path d="M22,11L10.41,11L12.707,8.708L11.293,7.292L6.586,11.991L11.292,16.707L12.708,15.294L10.418,13L22,13L22,11Z" style="fill:rgb(117,117,117);fill-rule:nonzero;"/>
        </g>
        <g transform="matrix(1.2,0,0,1.2,-2.4,-2.4)">
            <path d="M19.411,15C18.221,17.928 15.35,20 12,20C7.589,20 4,16.411 4,12C4,7.589 7.589,4 12,4C15.35,4 18.221,6.073 19.411,9L21.538,9C20.261,4.949 16.469,2 12,2C6.486,2 2,6.487 2,12C2,17.513 6.486,22 12,22C16.469,22 20.261,19.052 21.539,15L19.411,15Z" style="fill:rgb(117,117,117);fill-rule:nonzero;"/>
        </g>
    </g>
</svg>
