<?xml version="1.0" encoding="UTF-8" standalone="no"?>
<!DOCTYPE svg PUBLIC "-//W3C//DTD SVG 1.1//EN" "http://www.w3.org/Graphics/SVG/1.1/DTD/svg11.dtd">
<svg width="100%" height="100%" viewBox="0 0 24 24" version="1.1" xmlns="http://www.w3.org/2000/svg" xmlns:xlink="http://www.w3.org/1999/xlink" xml:space="preserve" xmlns:serif="http://www.serif.com/" style="fill-rule:evenodd;clip-rule:evenodd;stroke-linejoin:round;stroke-miterlimit:1.41421;">
    <path d="M22.493,15.3C21.087,19.757 16.916,23 12,23C5.935,23 1,18.064 1,12C1,5.936 5.935,1 12,1C16.916,1 21.087,4.244 22.492,8.7L20.152,8.7C18.843,5.48 15.685,3.2 12,3.2C7.148,3.2 3.2,7.148 3.2,12C3.2,16.852 7.148,20.8 12,20.8C15.685,20.8 18.843,18.521 20.152,15.3L22.493,15.3ZM23,10.9L10.251,10.9L12.778,8.379L11.222,6.821L6.045,11.99L11.221,17.178L12.779,15.623L10.26,13.1L23,13.1L23,10.9Z" style="fill:rgb(117,117,117);fill-rule:nonzero;"/>
</svg>
