<?xml version="1.0" encoding="UTF-8" standalone="no"?>
<!DOCTYPE svg PUBLIC "-//W3C//DTD SVG 1.1//EN" "http://www.w3.org/Graphics/SVG/1.1/DTD/svg11.dtd">
<svg width="100%" height="100%" viewBox="0 0 210 16" version="1.1" xmlns="http://www.w3.org/2000/svg" xmlns:xlink="http://www.w3.org/1999/xlink" xml:space="preserve" xmlns:serif="http://www.serif.com/" style="fill-rule:evenodd;clip-rule:evenodd;stroke-linejoin:round;stroke-miterlimit:1.41421;">
    <g id="product" transform="matrix(1,0,0,1,0.401,0.461)">
        <path d="M100.858,15.078C103.418,15.077 104.678,13.659 105.437,11.96L103.398,11.219C102.818,12.72 102.038,13.06 100.918,13.06C99.298,13.06 98.378,11.82 98.378,9.559C98.378,7.018 99.558,6.097 100.958,6.097C102.138,6.097 102.898,6.678 103.318,7.878L105.398,7.138C104.758,5.498 103.638,4.04 100.998,4.04C98.638,4.04 95.9,5.498 95.9,9.559C95.9,13.44 98.398,15.077 100.858,15.077L100.858,15.078ZM143.199,15.078C145.62,15.077 147.637,14.039 147.637,11.8C147.637,9.319 145.42,8.858 143.599,8.458C142.338,8.178 141.278,7.918 141.278,7.058C141.278,6.458 141.718,5.977 143.079,5.977C144.039,5.977 145.3,6.498 146.079,7.138L147.258,5.538C146.159,4.619 144.92,4.04 142.899,4.04C140.558,4.04 138.96,5.298 138.96,7.158C138.96,9.619 141.138,10.099 142.959,10.519C144.239,10.819 145.32,11.079 145.32,11.94C145.32,12.82 144.52,13.16 143.199,13.16C141.838,13.16 140.658,12.58 139.859,11.9L138.52,13.4C139.479,14.378 141.238,15.078 143.199,15.078ZM132.939,15.078C135.36,15.077 137.378,14.039 137.378,11.8C137.378,9.319 135.16,8.858 133.339,8.458C132.078,8.178 131.018,7.918 131.018,7.058C131.018,6.458 131.458,5.977 132.819,5.977C133.779,5.977 135.04,6.498 135.819,7.138L136.998,5.538C135.899,4.619 134.66,4.04 132.639,4.04C130.298,4.04 128.7,5.298 128.7,7.158C128.7,9.619 130.878,10.099 132.699,10.519C133.979,10.819 135.06,11.079 135.06,11.94C135.06,12.82 134.26,13.16 132.939,13.16C131.578,13.16 130.398,12.58 129.599,11.9L128.26,13.4C129.219,14.378 130.978,15.078 132.939,15.078ZM111.598,15.078C114.158,15.077 115.418,13.659 116.178,11.96L114.138,11.219C113.558,12.72 112.778,13.06 111.658,13.06C110.038,13.06 109.118,11.82 109.118,9.559C109.118,7.018 110.298,6.097 111.698,6.097C112.878,6.097 113.638,6.678 114.058,7.878L116.138,7.138C115.498,5.498 114.378,4.04 111.738,4.04C109.378,4.04 106.64,5.498 106.64,9.559C106.64,13.44 109.138,15.077 111.598,15.077L111.598,15.078ZM171.739,15.078C174.32,15.077 176.918,13.44 176.918,9.559C176.918,5.638 174.32,4.04 171.739,4.04C169.138,4.04 166.56,5.638 166.56,9.559C166.56,13.44 169.158,15.077 171.739,15.077L171.739,15.078ZM119.838,10.358C119.938,12.279 121.118,13.12 122.679,13.12C124.06,13.12 124.86,12.66 125.659,11.879L126.958,13.16C125.859,14.378 124.4,15.077 122.499,15.078C119.837,15.078 117.38,13.46 117.38,9.559C117.38,5.518 120.238,4.04 122.439,4.04C124.82,4.04 127.097,5.458 127.097,9.778L127.097,10.358L119.838,10.358ZM197.638,15.017C199.219,15.017 200.479,14.598 201.56,13.499C201.56,14.099 201.66,14.418 201.8,14.858L204.277,14.858C204.057,14.318 203.977,13.539 203.977,12.26L203.977,7.878C203.977,5.398 202.999,4.04 200.159,4.04C197.958,4.04 196.178,4.919 195.04,5.958L196.238,7.498C197.138,6.778 198.338,6.057 199.819,6.057C201,6.057 201.56,6.518 201.56,7.578L201.56,7.898C196.598,8.458 194.64,9.999 194.64,12.3C194.64,14.059 195.919,15.017 197.638,15.017ZM188.16,6.198L186.32,6.198L186.32,4.24L188.16,4.24L188.16,0.54L190.618,0.54L190.618,4.24L193.357,4.24L193.357,6.198L190.618,6.197L190.618,11.459C190.618,12.6 190.958,13.06 192.178,13.06C192.537,13.06 192.998,13 193.238,12.92L193.238,14.858C192.978,14.918 192.058,14.998 191.438,14.998C188.739,14.998 188.16,13.999 188.16,12.08L188.16,6.198ZM185.557,4.04L185.478,6.297C185.358,6.277 184.957,6.257 184.818,6.257C183.238,6.257 182.238,6.997 181.538,8.138L181.538,14.858L179.08,14.858L179.08,4.24L181.537,4.24L181.537,5.978L181.577,5.978C182.237,4.919 183.378,4.04 185.397,4.04L185.557,4.04ZM87.319,0L89.778,0L95.018,14.858L92.458,14.858L91.258,11.338L85.639,11.337L84.42,14.858L82.08,14.858L87.319,0ZM206.72,0.06L209.198,0.06L209.198,14.858L206.72,14.858L206.72,0.06ZM160.279,0.06C163.48,0.06 165.978,1.179 165.978,4.599C165.978,8.179 163.24,9.238 160.199,9.238L157.578,9.237L157.578,14.858L155.1,14.858L155.1,0.06L160.279,0.06ZM198.538,13.12C197.638,13.12 197.058,12.68 197.058,11.84C197.058,10.679 198.618,9.959 201.56,9.559L201.56,11.9C200.78,12.64 199.799,13.12 198.538,13.12ZM171.739,13.021C169.858,13.021 169.038,11.58 169.038,9.56C169.038,7.419 169.958,6.138 171.739,6.138C173.6,6.138 174.44,7.579 174.44,9.56C174.44,11.741 173.52,13.021 171.739,13.021ZM90.518,9.14L88.499,3.137L88.459,3.137L86.399,9.14L90.518,9.14ZM124.84,8.52C124.833,8.457 124.826,8.395 124.818,8.334C124.816,8.324 124.815,8.313 124.813,8.303C124.811,8.285 124.808,8.267 124.805,8.249C124.803,8.231 124.8,8.213 124.797,8.195C124.748,7.899 124.676,7.634 124.58,7.399C124.558,7.345 124.535,7.293 124.511,7.242C124.506,7.232 124.501,7.222 124.496,7.211C124.478,7.175 124.459,7.14 124.44,7.105C124.435,7.097 124.43,7.088 124.425,7.08C124.421,7.071 124.416,7.063 124.41,7.054C124.405,7.044 124.399,7.035 124.393,7.025C124.387,7.015 124.381,7.005 124.375,6.996L124.367,6.984C124.364,6.979 124.362,6.975 124.359,6.971C124.317,6.907 124.273,6.846 124.226,6.789C124.218,6.779 124.21,6.769 124.202,6.76L124.193,6.749C124.184,6.739 124.175,6.728 124.166,6.718L124.157,6.708L124.15,6.7C124.136,6.685 124.122,6.67 124.107,6.655C124.093,6.641 124.079,6.627 124.064,6.613C124.041,6.591 124.018,6.57 123.995,6.549C123.958,6.517 123.921,6.487 123.882,6.459C123.862,6.443 123.841,6.429 123.82,6.414C123.804,6.404 123.788,6.393 123.772,6.383C123.757,6.374 123.743,6.365 123.728,6.356C123.72,6.351 123.712,6.346 123.704,6.342C123.665,6.319 123.625,6.297 123.583,6.277C123.48,6.227 123.37,6.184 123.254,6.149C123.24,6.145 123.226,6.141 123.212,6.137C123.193,6.132 123.173,6.127 123.153,6.122L123.139,6.118C123.101,6.109 123.062,6.1 123.023,6.093L123.008,6.09C122.985,6.086 122.963,6.082 122.94,6.078C122.915,6.074 122.89,6.07 122.865,6.067C122.84,6.063 122.815,6.06 122.79,6.058C122.748,6.053 122.705,6.049 122.661,6.046C122.626,6.044 122.59,6.042 122.553,6.04L122.537,6.04C122.504,6.039 122.47,6.038 122.436,6.038L122.419,6.038L122.405,6.038C122.363,6.038 122.321,6.039 122.279,6.041C122.176,6.046 122.075,6.056 121.975,6.071L121.961,6.073C121.947,6.075 121.933,6.077 121.918,6.08L121.907,6.082L121.904,6.083C121.882,6.086 121.861,6.09 121.839,6.095C121.819,6.099 121.798,6.104 121.777,6.108C121.695,6.127 121.615,6.15 121.536,6.177L121.523,6.181L121.52,6.182C121.51,6.186 121.5,6.189 121.489,6.193C121.472,6.199 121.455,6.206 121.438,6.212C121.264,6.28 121.098,6.369 120.944,6.48C120.929,6.491 120.914,6.502 120.899,6.513C120.862,6.541 120.825,6.571 120.79,6.602C120.751,6.635 120.713,6.67 120.677,6.707C120.65,6.733 120.624,6.761 120.599,6.789C120.553,6.839 120.509,6.892 120.467,6.948L120.462,6.955L120.458,6.96C120.45,6.97 120.442,6.981 120.435,6.991L120.426,7.004C120.379,7.069 120.335,7.138 120.294,7.21C120.245,7.294 120.2,7.383 120.159,7.476C120.148,7.502 120.137,7.527 120.126,7.553C120.048,7.744 119.983,7.954 119.935,8.186C119.915,8.28 119.898,8.377 119.884,8.478L119.881,8.499C119.88,8.506 119.879,8.513 119.878,8.52L124.84,8.52ZM157.577,2.338L157.577,7.06L160.319,7.06C162.52,7.06 163.52,6.38 163.52,4.679C163.52,3.038 162.52,2.338 160.299,2.338L157.577,2.338Z" style="fill:rgb(0,129,227);"/>
    </g>
    <g id="brand" transform="matrix(1,0,0,1,0.401,0.461)">
        <path d="M57.938,15.018C59.519,15.018 60.839,14.498 62.02,13.4C62.02,13.999 62.12,14.419 62.26,14.858L64.017,14.858C63.797,14.319 63.717,13.54 63.717,12.26L63.717,7.598C63.717,5.398 62.719,4.08 60.199,4.08C58.098,4.08 56.518,4.919 55.3,6.038L56.198,7.118C57.238,6.218 58.418,5.517 60.019,5.517C61.32,5.517 62.02,6.158 62.02,7.478L62.02,7.958C56.778,8.698 54.96,10.219 54.96,12.36C54.96,14.059 56.118,15.017 57.938,15.017L57.938,15.018ZM6.959,12.64L6.999,12.64L11.58,0.06L13.918,0.06L13.918,14.858L12.18,14.858L12.18,2.88L12.14,2.88C11.94,3.659 11.58,4.619 11.24,5.6L7.699,14.858L6.119,14.858L2.578,5.599C2.218,4.619 1.978,3.999 1.658,2.82L1.617,2.82L1.617,14.858L0,14.858L0,0.06L2.298,0.06L6.959,12.64ZM17.381,4.3L19.098,4.3L19.098,14.858L17.381,14.858L17.381,4.3ZM32.38,4.3L34.097,4.3L34.097,14.858L32.38,14.858L32.38,4.3ZM22.38,0.06L24.097,0.06L24.097,14.858L22.38,14.858L22.38,0.06ZM27.38,0.06L29.098,0.06L29.098,14.858L27.38,14.858L27.38,0.06ZM68.398,4.3L68.397,5.878C69.318,4.978 70.639,4.08 72.359,4.08C74.379,4.08 75.478,5.238 75.477,7.237L75.478,14.858L73.76,14.858L73.76,7.617C73.76,6.218 73.16,5.558 71.819,5.558C70.559,5.558 69.498,6.218 68.398,7.257L68.398,14.858L66.66,14.858L66.66,4.3L68.398,4.3ZM38.978,4.3L38.978,5.898C39.978,4.899 41.199,4.08 42.779,4.08C44.559,4.08 45.318,4.839 45.678,5.938C46.698,4.939 47.999,4.08 49.579,4.08C51.739,4.08 52.637,5.338 52.637,7.237L52.637,14.858L50.92,14.858L50.92,7.617C50.92,6.218 50.46,5.558 49.079,5.558C47.899,5.558 46.918,6.218 45.817,7.257L45.817,14.858L44.1,14.858L44.1,7.617C44.1,6.218 43.64,5.558 42.259,5.558C41.099,5.558 40.098,6.218 38.977,7.257L38.978,14.858L37.26,14.858L37.26,4.3L38.978,4.3ZM58.438,13.66C57.338,13.66 56.657,13.12 56.657,12.1C56.657,10.779 57.998,9.799 62.02,9.159L62.02,12.12C61.04,13.08 59.839,13.66 58.438,13.66ZM32.34,0.36L34.137,0.36L34.137,2.038L32.34,2.038L32.34,0.36ZM17.34,0.36L19.137,0.36L19.138,2.038L17.34,2.038L17.34,0.36Z" style="fill:rgb(77,57,58);"/>
    </g>
</svg>
