<?xml version="1.0" encoding="UTF-8" standalone="no"?>
<!DOCTYPE svg PUBLIC "-//W3C//DTD SVG 1.1//EN" "http://www.w3.org/Graphics/SVG/1.1/DTD/svg11.dtd">
<svg width="100%" height="100%" viewBox="0 0 210 16" version="1.1" xmlns="http://www.w3.org/2000/svg" xmlns:xlink="http://www.w3.org/1999/xlink" xml:space="preserve" xmlns:serif="http://www.serif.com/" style="fill-rule:evenodd;clip-rule:evenodd;stroke-linejoin:round;stroke-miterlimit:1.41421;">
    <g id="Brand">
        <path d="M1.617,14.858L1.617,2.82L1.658,2.82C1.978,3.999 2.218,4.619 2.578,5.599L6.119,14.858L7.699,14.858L11.24,5.6C11.58,4.619 11.94,3.659 12.14,2.88L12.18,2.88L12.18,14.858L13.918,14.858L13.918,0.06L11.58,0.06L6.999,12.64L6.959,12.64L2.298,0.06L0,0.06L0,14.858L1.618,14.858L1.617,14.858Z" style="fill:rgb(57,65,77);fill-rule:nonzero;"/>
        <path d="M19.138,2.038L19.137,0.36L17.34,0.36L17.34,2.038L19.138,2.038ZM19.098,14.858L19.098,4.3L17.381,4.3L17.381,14.858L19.098,14.858Z" style="fill:rgb(57,65,77);fill-rule:nonzero;"/>
        <rect x="22.38" y="0.06" width="1.717" height="14.798" style="fill:rgb(57,65,77);"/>
        <rect x="27.38" y="0.06" width="1.718" height="14.798" style="fill:rgb(57,65,77);"/>
        <path d="M34.137,2.038L34.137,0.36L32.34,0.36L32.34,2.038L34.137,2.038ZM34.097,14.858L34.097,4.3L32.38,4.3L32.38,14.858L34.097,14.858Z" style="fill:rgb(57,65,77);fill-rule:nonzero;"/>
        <path d="M38.978,14.858L38.977,7.257C40.098,6.218 41.099,5.558 42.259,5.558C43.64,5.558 44.1,6.218 44.1,7.617L44.1,14.858L45.817,14.858L45.817,7.257C46.918,6.218 47.899,5.558 49.079,5.558C50.46,5.558 50.92,6.218 50.92,7.617L50.92,14.858L52.637,14.858L52.637,7.237C52.637,5.338 51.739,4.08 49.579,4.08C47.999,4.08 46.698,4.939 45.678,5.938C45.318,4.839 44.559,4.08 42.779,4.08C41.199,4.08 39.978,4.899 38.978,5.898L38.978,4.3L37.26,4.3L37.26,14.858L38.978,14.858Z" style="fill:rgb(57,65,77);fill-rule:nonzero;"/>
        <path d="M58.438,13.66C57.338,13.66 56.657,13.12 56.657,12.1C56.657,10.779 57.998,9.799 62.02,9.159L62.02,12.12C61.04,13.08 59.839,13.66 58.438,13.66ZM57.938,15.018C59.519,15.018 60.839,14.498 62.02,13.4C62.02,13.999 62.12,14.419 62.26,14.858L64.017,14.858C63.797,14.319 63.717,13.54 63.717,12.26L63.717,7.598C63.717,5.398 62.719,4.08 60.199,4.08C58.098,4.08 56.518,4.919 55.3,6.038L56.198,7.118C57.238,6.218 58.418,5.517 60.019,5.517C61.32,5.517 62.02,6.158 62.02,7.478L62.02,7.958C56.778,8.698 54.96,10.219 54.96,12.36C54.96,14.059 56.118,15.017 57.938,15.017L57.938,15.018Z" style="fill:rgb(57,65,77);fill-rule:nonzero;"/>
        <path d="M68.398,14.858L68.398,7.257C69.498,6.218 70.559,5.558 71.819,5.558C73.16,5.558 73.76,6.218 73.76,7.617L73.76,14.858L75.478,14.858L75.477,7.237C75.478,5.238 74.379,4.08 72.359,4.08C70.639,4.08 69.318,4.978 68.397,5.878L68.398,4.3L66.66,4.3L66.66,14.858L68.398,14.858Z" style="fill:rgb(57,65,77);fill-rule:nonzero;"/>
    </g>
    <g id="Product">
        <path d="M88.459,3.137L88.499,3.137L90.518,9.14L86.399,9.14L88.459,3.137ZM84.42,14.858L85.639,11.337L91.258,11.338L92.458,14.858L95.018,14.858L89.778,0L87.319,0L82.08,14.858L84.42,14.858Z" style="fill:rgb(0,129,227);fill-rule:nonzero;"/>
        <path d="M100.858,15.078C103.418,15.077 104.678,13.659 105.437,11.96L103.398,11.219C102.818,12.72 102.038,13.06 100.918,13.06C99.298,13.06 98.378,11.82 98.378,9.559C98.378,7.018 99.558,6.097 100.958,6.097C102.138,6.097 102.898,6.678 103.318,7.878L105.398,7.138C104.758,5.498 103.638,4.04 100.998,4.04C98.638,4.04 95.9,5.498 95.9,9.559C95.9,13.44 98.398,15.077 100.858,15.077L100.858,15.078Z" style="fill:rgb(0,129,227);fill-rule:nonzero;"/>
        <path d="M111.598,15.078C114.158,15.077 115.418,13.659 116.178,11.96L114.138,11.219C113.558,12.72 112.778,13.06 111.658,13.06C110.038,13.06 109.118,11.82 109.118,9.559C109.118,7.018 110.298,6.097 111.698,6.097C112.878,6.097 113.638,6.678 114.058,7.878L116.138,7.138C115.498,5.498 114.378,4.04 111.738,4.04C109.378,4.04 106.64,5.498 106.64,9.559C106.64,13.44 109.138,15.077 111.598,15.077L111.598,15.078Z" style="fill:rgb(0,129,227);fill-rule:nonzero;"/>
        <path d="M122.499,15.078C124.4,15.077 125.859,14.378 126.958,13.16L125.659,11.879C124.86,12.66 124.06,13.12 122.679,13.12C121.118,13.12 119.938,12.279 119.838,10.358L127.097,10.358L127.097,9.778C127.097,5.458 124.82,4.04 122.439,4.04C120.238,4.04 117.38,5.518 117.38,9.559C117.38,13.46 119.837,15.078 122.499,15.078ZM119.878,8.52C120.118,6.718 121.218,6.038 122.419,6.038C123.9,6.038 124.7,6.898 124.84,8.52L119.878,8.52Z" style="fill:rgb(0,129,227);fill-rule:nonzero;"/>
        <path d="M132.939,15.078C135.36,15.077 137.378,14.039 137.378,11.8C137.378,9.319 135.16,8.858 133.339,8.458C132.078,8.178 131.018,7.918 131.018,7.058C131.018,6.458 131.458,5.977 132.819,5.977C133.779,5.977 135.04,6.498 135.819,7.138L136.998,5.538C135.899,4.619 134.66,4.04 132.639,4.04C130.298,4.04 128.7,5.298 128.7,7.158C128.7,9.619 130.878,10.099 132.699,10.519C133.979,10.819 135.06,11.079 135.06,11.94C135.06,12.82 134.26,13.16 132.939,13.16C131.578,13.16 130.398,12.58 129.599,11.9L128.26,13.4C129.219,14.378 130.978,15.078 132.939,15.078Z" style="fill:rgb(0,129,227);fill-rule:nonzero;"/>
        <path d="M143.199,15.078C145.62,15.077 147.637,14.039 147.637,11.8C147.637,9.319 145.42,8.858 143.599,8.458C142.338,8.178 141.278,7.918 141.278,7.058C141.278,6.458 141.718,5.977 143.079,5.977C144.039,5.977 145.3,6.498 146.079,7.138L147.258,5.538C146.159,4.619 144.92,4.04 142.899,4.04C140.558,4.04 138.96,5.298 138.96,7.158C138.96,9.619 141.138,10.099 142.959,10.519C144.239,10.819 145.32,11.079 145.32,11.94C145.32,12.82 144.52,13.16 143.199,13.16C141.838,13.16 140.658,12.58 139.859,11.9L138.52,13.4C139.479,14.378 141.238,15.078 143.199,15.078Z" style="fill:rgb(0,129,227);fill-rule:nonzero;"/>
        <path d="M157.578,14.858L157.578,9.237L160.199,9.238C163.24,9.238 165.978,8.179 165.978,4.599C165.978,1.179 163.48,0.06 160.279,0.06L155.1,0.06L155.1,14.858L157.578,14.858ZM157.578,2.338L160.299,2.338C162.52,2.338 163.52,3.038 163.52,4.679C163.52,6.38 162.52,7.06 160.319,7.06L157.577,7.06L157.577,2.338L157.578,2.338Z" style="fill:rgb(0,129,227);fill-rule:nonzero;"/>
        <path d="M171.739,15.078C174.32,15.077 176.918,13.44 176.918,9.559C176.918,5.638 174.32,4.04 171.739,4.04C169.138,4.04 166.56,5.638 166.56,9.559C166.56,13.44 169.158,15.077 171.739,15.077L171.739,15.078ZM171.739,13.021C169.858,13.021 169.038,11.58 169.038,9.56C169.038,7.419 169.958,6.138 171.739,6.138C173.6,6.138 174.44,7.579 174.44,9.56C174.44,11.741 173.52,13.021 171.739,13.021Z" style="fill:rgb(0,129,227);fill-rule:nonzero;"/>
        <path d="M181.538,14.858L181.538,8.138C182.238,6.997 183.238,6.257 184.818,6.257C184.957,6.257 185.358,6.277 185.478,6.297L185.557,4.04L185.397,4.04C183.378,4.04 182.237,4.919 181.577,5.978L181.537,5.978L181.537,4.24L179.08,4.24L179.08,14.858L181.538,14.858Z" style="fill:rgb(0,129,227);fill-rule:nonzero;"/>
        <path d="M191.438,14.998C192.058,14.998 192.978,14.918 193.238,14.858L193.238,12.92C192.998,13 192.537,13.06 192.178,13.06C190.958,13.06 190.618,12.6 190.618,11.459L190.618,6.197L193.357,6.198L193.357,4.24L190.618,4.24L190.618,0.54L188.16,0.54L188.16,4.24L186.32,4.24L186.32,6.198L188.16,6.198L188.16,12.08C188.16,13.999 188.739,14.998 191.438,14.998Z" style="fill:rgb(0,129,227);fill-rule:nonzero;"/>
        <path d="M198.538,13.12C197.638,13.12 197.058,12.68 197.058,11.84C197.058,10.679 198.618,9.959 201.56,9.559L201.56,11.9C200.78,12.64 199.799,13.12 198.538,13.12ZM197.638,15.017C199.219,15.017 200.479,14.598 201.56,13.499C201.56,14.099 201.66,14.418 201.8,14.858L204.277,14.858C204.057,14.318 203.977,13.539 203.977,12.26L203.977,7.878C203.977,5.398 202.999,4.04 200.159,4.04C197.958,4.04 196.178,4.919 195.04,5.958L196.238,7.498C197.138,6.778 198.338,6.057 199.819,6.057C201,6.057 201.56,6.518 201.56,7.578L201.56,7.898C196.598,8.458 194.64,9.999 194.64,12.3C194.64,14.059 195.919,15.017 197.638,15.017Z" style="fill:rgb(0,129,227);fill-rule:nonzero;"/>
        <rect x="206.72" y="0.06" width="2.478" height="14.798" style="fill:rgb(0,129,227);"/>
    </g>
</svg>
