<?xml version="1.0" encoding="UTF-8" standalone="no"?>
<!DOCTYPE svg PUBLIC "-//W3C//DTD SVG 1.1//EN" "http://www.w3.org/Graphics/SVG/1.1/DTD/svg11.dtd">
<svg width="100%" height="100%" viewBox="0 0 24 24" version="1.1" xmlns="http://www.w3.org/2000/svg" xmlns:xlink="http://www.w3.org/1999/xlink" xml:space="preserve" xmlns:serif="http://www.serif.com/" style="fill-rule:evenodd;clip-rule:evenodd;stroke-linejoin:round;stroke-miterlimit:1.41421;">
    <g id="Line_Icons">
        <g transform="matrix(1.11111,0,0,1.09091,-1.33333,-1.09091)">
            <path d="M16.414,1L5,1C3.897,1 3,1.898 3,3L3,21C3,22.103 3.897,23 5,23L19,23C20.103,23 21,22.103 21,21L21,5.586L16.414,1ZM5,21L5,3L15,3L15,7L19,7L19.001,21L5,21Z" style="fill:rgb(117,117,117);fill-rule:nonzero;"/>
        </g>
        <g transform="matrix(1.20565,0,0,1.20565,1.06971,0.697847)">
            <text x="5.19px" y="16.044px" style="font-family:'ArialMT', 'Arial', sans-serif;font-size:14px;fill:rgb(117,117,117);">#</text>
        </g>
    </g>
</svg>
