<?xml version="1.0" encoding="UTF-8" standalone="no"?>
<!DOCTYPE svg PUBLIC "-//W3C//DTD SVG 1.1//EN" "http://www.w3.org/Graphics/SVG/1.1/DTD/svg11.dtd">
<svg width="100%" height="100%" viewBox="0 0 24 24" version="1.1" xmlns="http://www.w3.org/2000/svg" xmlns:xlink="http://www.w3.org/1999/xlink" xml:space="preserve" xmlns:serif="http://www.serif.com/" style="fill-rule:evenodd;clip-rule:evenodd;stroke-linejoin:round;stroke-miterlimit:1.41421;">
    <g id="Line_Icons">
        <g transform="matrix(1.16573,0,0,1.16573,-1.98146,-1.64484)">
            <path d="M19.622,9.672L17.995,11.894C17.995,11.931 18,11.964 18,11.999C18,15.309 15.309,17.999 12,17.999C8.691,17.999 6,15.309 6,11.999C6,8.69 8.691,5.999 12,5.999C12.579,5.999 13.137,6.086 13.667,6.24L14.887,4.574C14.596,4.461 14.307,4.342 14,4.262L14,1.999L10,1.999L10,4.262C9.099,4.497 8.256,4.874 7.507,5.385L5.989,3.867L3.868,5.988L5.386,7.506C4.875,8.256 4.497,9.098 4.263,9.999L2,9.999L2,13.999L4.263,13.999C4.496,14.902 4.875,15.743 5.386,16.492L3.868,18.01L5.989,20.132L7.507,18.614C8.256,19.124 9.099,19.502 10,19.736L10,21.999L14,21.999L14,19.736C14.901,19.503 15.744,19.124 16.493,18.614L18.011,20.132L20.132,18.01L18.614,16.492C19.125,15.743 19.503,14.902 19.737,13.999L22,13.999L22,9.999L19.737,9.999C19.708,9.886 19.656,9.783 19.622,9.672Z" style="fill:rgb(117,117,117);fill-rule:nonzero;"/>
        </g>
        <g transform="matrix(1.16573,0,0,1.16573,-1.98146,-1.64484)">
            <path d="M13.212,14.408L8.4,10.8L9.6,9.199L12.788,11.59L20.191,1.411L21.809,2.587L13.212,14.408Z" style="fill:rgb(117,117,117);fill-rule:nonzero;"/>
        </g>
    </g>
</svg>
