<?xml version="1.0" encoding="UTF-8" standalone="no"?>
<!DOCTYPE svg PUBLIC "-//W3C//DTD SVG 1.1//EN" "http://www.w3.org/Graphics/SVG/1.1/DTD/svg11.dtd">
<svg width="100%" height="100%" viewBox="0 0 24 24" version="1.1" xmlns="http://www.w3.org/2000/svg" xmlns:xlink="http://www.w3.org/1999/xlink" xml:space="preserve" xmlns:serif="http://www.serif.com/" style="fill-rule:evenodd;clip-rule:evenodd;stroke-linejoin:round;stroke-miterlimit:1.41421;">
    <g id="Line_Icons" transform="matrix(0.916665,0,0,0.916665,1.0001,1.00002)">
        <g transform="matrix(1,0,0,1.04348,0,-1.16496e-12)">
            <path d="M12.001,23C2.115,23 2.001,6.694 2.001,6C2.001,5.637 2.198,5.303 2.515,5.126L11.515,0.126C11.818,-0.042 12.184,-0.042 12.487,0.126L21.487,5.126C21.804,5.302 22.001,5.636 22.001,6C22.001,6.694 21.887,23 12.001,23ZM4.017,6.58C4.126,9.341 5.004,21 12.001,21C18.998,21 19.876,9.342 19.985,6.58L12.001,2.143L4.017,6.58Z" style="fill:rgb(117,117,117);fill-rule:nonzero;"/>
        </g>
        <g transform="matrix(1,0,0,1,-6.001,5.9935)">
            <path d="M24.002,7.006L24.002,5.006L22.9,5.006C22.769,4.368 22.515,3.777 22.167,3.252L22.951,2.468L21.537,1.054L20.752,1.838C20.229,1.491 19.638,1.236 19.001,1.108L19.001,0.006L17.001,0.006L17.001,1.108C16.363,1.237 15.772,1.492 15.248,1.839L14.465,1.056L13.051,2.47L13.834,3.253C13.486,3.777 13.232,4.369 13.102,5.006L12,5.006L12,7.006L13.102,7.006C13.233,7.644 13.487,8.235 13.834,8.76L13.051,9.544L14.466,10.957L15.248,10.173C15.773,10.521 16.365,10.776 17.002,10.904L17.002,12.007L19.002,12.007L19.002,10.904C19.639,10.774 20.231,10.52 20.755,10.172L21.539,10.955L22.952,9.54L22.168,8.758C22.516,8.234 22.77,7.643 22.9,7.006L24.002,7.006ZM18,8.006C16.895,8.006 16,7.11 16,6.006C16,4.902 16.895,4.006 18,4.006C19.104,4.006 20,4.902 20,6.006C20,7.109 19.104,8.006 18,8.006Z" style="fill:rgb(117,117,117);fill-rule:nonzero;"/>
        </g>
    </g>
</svg>
