<?xml version="1.0" encoding="UTF-8" standalone="no"?>
<!DOCTYPE svg PUBLIC "-//W3C//DTD SVG 1.1//EN" "http://www.w3.org/Graphics/SVG/1.1/DTD/svg11.dtd">
<svg width="100%" height="100%" viewBox="0 0 24 24" version="1.1" xmlns="http://www.w3.org/2000/svg" xmlns:xlink="http://www.w3.org/1999/xlink" xml:space="preserve" xmlns:serif="http://www.serif.com/" style="fill-rule:evenodd;clip-rule:evenodd;stroke-linejoin:round;stroke-miterlimit:1.41421;">
    <g id="Line_Icons">
        <g transform="matrix(1.11111,0,0,1.09091,-1.33333,-1.09091)">
            <path d="M16.414,1L5,1C3.897,1 3,1.898 3,3L3,21C3,22.103 3.897,23 5,23L19,23C20.103,23 21,22.103 21,21L21,5.586L16.414,1ZM5,21L5,3L15,3L15,7L19,7L19.001,21L5,21Z" style="fill:rgb(117,117,117);fill-rule:nonzero;"/>
        </g>
        <g transform="matrix(1,0,0,1,-5,-3)">
            <path d="M17,10C13.141,10 10,13.14 10,17C10,20.86 13.141,24 17,24C20.859,24 24,20.86 24,17C24,13.14 20.859,10 17,10ZM17,22C14.243,22 12,19.757 12,17C12,14.243 14.243,12 17,12C19.757,12 22,14.243 22,17C22,19.757 19.757,22 17,22Z" style="fill:rgb(117,117,117);fill-rule:nonzero;"/>
        </g>
        <g transform="matrix(1.14286,0,0,1.14286,-7.42857,-6)">
            <rect x="16" y="17" width="2" height="4" style="fill:rgb(117,117,117);"/>
        </g>
        <g transform="matrix(1.14286,0,0,1.14286,-7.42857,-6)">
            <circle cx="17" cy="15" r="1" style="fill:rgb(117,117,117);"/>
        </g>
    </g>
</svg>
