<?xml version="1.0" encoding="UTF-8" standalone="no"?>
<!DOCTYPE svg PUBLIC "-//W3C//DTD SVG 1.1//EN" "http://www.w3.org/Graphics/SVG/1.1/DTD/svg11.dtd">
<svg width="100%" height="100%" viewBox="0 0 24 24" version="1.1" xmlns="http://www.w3.org/2000/svg" xmlns:xlink="http://www.w3.org/1999/xlink" xml:space="preserve" xmlns:serif="http://www.serif.com/" style="fill-rule:evenodd;clip-rule:evenodd;stroke-linejoin:round;stroke-miterlimit:1.41421;">
    <path d="M16.496,1L21.167,5.586L21.167,21C21.167,22.103 20.253,23 19.13,23L4.87,23C3.747,23 2.833,22.103 2.833,21L2.833,3C2.833,1.898 3.747,1 4.87,1L16.496,1ZM15.056,7L15.056,3L4.87,3L4.87,21L19.131,21L19.13,7L15.056,7ZM12,8.333C8.968,8.333 6.5,10.8 6.5,13.833C6.5,16.866 8.968,19.333 12,19.333C15.032,19.333 17.5,16.866 17.5,13.833C17.5,10.8 15.032,8.333 12,8.333ZM12,17.762C9.834,17.762 8.071,16 8.071,13.833C8.071,11.667 9.834,9.905 12,9.905C14.166,9.905 15.929,11.667 15.929,13.833C15.929,16 14.166,17.762 12,17.762ZM12.898,16.976L11.102,16.976L11.102,13.384L12.898,13.384L12.898,16.976ZM12,10.691C12.496,10.691 12.898,11.093 12.898,11.588C12.898,12.084 12.496,12.486 12,12.486C11.504,12.486 11.102,12.084 11.102,11.588C11.102,11.093 11.504,10.691 12,10.691Z" style="fill:rgb(117,117,117);fill-rule:nonzero;"/>
</svg>
