<?xml version="1.0" encoding="UTF-8" standalone="no"?>
<!DOCTYPE svg PUBLIC "-//W3C//DTD SVG 1.1//EN" "http://www.w3.org/Graphics/SVG/1.1/DTD/svg11.dtd">
<svg width="100%" height="100%" viewBox="0 0 24 24" version="1.1" xmlns="http://www.w3.org/2000/svg" xmlns:xlink="http://www.w3.org/1999/xlink" xml:space="preserve" xmlns:serif="http://www.serif.com/" style="fill-rule:evenodd;clip-rule:evenodd;stroke-linejoin:round;stroke-miterlimit:1.41421;">
    <g id="Line_Icons" transform="matrix(1.5,0,0,1.5,-6.001,-6.003)">
        <path d="M12.002,12.006C9.796,12.006 8.002,10.212 8.002,8.006C8.002,5.801 9.796,4.006 12.002,4.006C14.208,4.006 16.002,5.801 16.002,8.006C16.002,10.212 14.208,12.006 12.002,12.006ZM12.002,6.006C10.899,6.006 10.002,6.902 10.002,8.006C10.002,9.109 10.899,10.006 12.002,10.006C13.105,10.006 14.002,9.109 14.002,8.006C14.002,6.902 13.105,6.006 12.002,6.006Z" style="fill:rgb(117,117,117);fill-rule:nonzero;"/>
        <path d="M20.002,20.006L4.002,20.006L4.002,19.006C4.002,15.473 7.292,13.006 12.002,13.006C16.712,13.006 20.002,15.473 20.002,19.006L20.002,20.006ZM6.161,18.006L17.844,18.006C17.246,16.198 15.011,15.006 12.003,15.006C8.995,15.006 6.759,16.198 6.161,18.006Z" style="fill:rgb(117,117,117);fill-rule:nonzero;"/>
    </g>
</svg>
