<?xml version="1.0" encoding="UTF-8" standalone="no"?>
<!DOCTYPE svg PUBLIC "-//W3C//DTD SVG 1.1//EN" "http://www.w3.org/Graphics/SVG/1.1/DTD/svg11.dtd">
<svg width="100%" height="100%" viewBox="0 0 24 24" version="1.1" xmlns="http://www.w3.org/2000/svg" xmlns:xlink="http://www.w3.org/1999/xlink" xml:space="preserve" xmlns:serif="http://www.serif.com/" style="fill-rule:evenodd;clip-rule:evenodd;stroke-linejoin:round;stroke-miterlimit:1.41421;">
    <path d="M23.002,23.006L1.002,23.006L1.002,21.631C1.002,16.773 5.526,13.381 12.002,13.381C18.478,13.381 23.002,16.773 23.002,21.631L23.002,23.006ZM3.971,20.256L20.035,20.256C19.212,17.77 16.139,16.131 12.003,16.131C7.867,16.131 4.793,17.77 3.971,20.256ZM12.002,12.006C8.969,12.006 6.502,9.539 6.502,6.506C6.502,3.474 8.969,1.006 12.002,1.006C15.035,1.006 17.502,3.474 17.502,6.506C17.502,9.539 15.035,12.006 12.002,12.006ZM12.002,3.756C10.485,3.756 9.252,4.988 9.252,6.506C9.252,8.023 10.485,9.256 12.002,9.256C13.519,9.256 14.752,8.023 14.752,6.506C14.752,4.988 13.519,3.756 12.002,3.756Z" style="fill:rgb(117,117,117);fill-rule:nonzero;"/>
</svg>
