<?xml version="1.0" encoding="UTF-8" standalone="no"?>
<!DOCTYPE svg PUBLIC "-//W3C//DTD SVG 1.1//EN" "http://www.w3.org/Graphics/SVG/1.1/DTD/svg11.dtd">
<svg width="100%" height="100%" viewBox="0 0 24 24" version="1.1" xmlns="http://www.w3.org/2000/svg" xmlns:xlink="http://www.w3.org/1999/xlink" xml:space="preserve" xmlns:serif="http://www.serif.com/" style="fill-rule:evenodd;clip-rule:evenodd;stroke-linejoin:round;stroke-miterlimit:1.41421;">
    <path d="M12.001,23C2.939,23 2.834,7.403 2.834,6.739C2.834,6.392 3.015,6.072 3.306,5.903L11.555,1.121C11.833,0.96 12.169,0.96 12.446,1.121L20.696,5.903C20.987,6.071 21.168,6.391 21.168,6.739C21.168,7.403 21.063,23 12.001,23ZM4.682,7.294C4.782,9.935 5.587,21.087 12.001,21.087C18.415,21.087 19.22,9.936 19.32,7.294L12.001,3.05L4.682,7.294ZM12.917,6.5L12.917,7.51C13.501,7.627 14.042,7.861 14.522,8.179L15.241,7.46L16.538,8.756L15.819,9.475C16.138,9.956 16.371,10.498 16.491,11.083L17.501,11.083L17.501,12.916L16.491,12.916C16.372,13.5 16.139,14.042 15.82,14.522L16.538,15.239L15.243,16.536L14.525,15.818C14.044,16.137 13.502,16.37 12.918,16.489L12.918,17.5L11.084,17.5L11.084,16.489C10.5,16.372 9.958,16.138 9.477,15.819L8.76,16.538L7.463,15.243L8.18,14.524C7.876,14.064 7.65,13.549 7.509,12.916L6.499,12.916L6.499,11.083L7.509,11.083C7.649,10.451 7.876,9.935 8.18,9.476L7.463,8.758L8.759,7.462L9.477,8.18C9.957,7.862 10.499,7.628 11.083,7.51L11.083,6.5L12.917,6.5ZM11.999,13.833C10.986,13.833 10.166,13.012 10.166,12C10.166,10.988 10.986,10.166 11.999,10.166C13.011,10.166 13.832,10.988 13.832,12C13.832,13.011 13.011,13.833 11.999,13.833Z" style="fill:rgb(117,117,117);"/>
</svg>
