<?xml version="1.0" encoding="UTF-8" standalone="no"?><!DOCTYPE svg PUBLIC "-//W3C//DTD SVG 1.1//EN" "http://www.w3.org/Graphics/SVG/1.1/DTD/svg11.dtd"><svg width="100%" height="100%" viewBox="0 0 24 24" version="1.1" xmlns="http://www.w3.org/2000/svg" xmlns:xlink="http://www.w3.org/1999/xlink" xml:space="preserve" xmlns:serif="http://www.serif.com/" style="fill-rule:evenodd;clip-rule:evenodd;stroke-linejoin:round;stroke-miterlimit:2;"><path d="M23.002,23.006l-22,0l0,-1.375c0,-4.858 4.524,-8.25 11,-8.25c6.476,0 11,3.392 11,8.25l0,1.375Zm-19.031,-2.75l16.064,0c-0.823,-2.486 -3.896,-4.125 -8.032,-4.125c-4.136,0 -7.21,1.639 -8.032,4.125Zm8.031,-8.25c-3.033,0 -5.5,-2.467 -5.5,-5.5c0,-3.032 2.467,-5.5 5.5,-5.5c3.033,0 5.5,2.468 5.5,5.5c0,3.033 -2.467,5.5 -5.5,5.5Zm0,-8.25c-1.517,0 -2.75,1.232 -2.75,2.75c0,1.517 1.233,2.75 2.75,2.75c1.517,0 2.75,-1.233 2.75,-2.75c0,-1.518 -1.233,-2.75 -2.75,-2.75Z" style="fill:#757575;fill-rule:nonzero;"/><path d="M23,3.445l-2.444,0l0,-2.444l-0.612,0l0,2.444l-2.444,0l0,0.612l2.444,0l0,2.444l0.612,0l0,-2.444l2.444,0l0,-0.612Z" style="fill:#757575;fill-rule:nonzero;"/></svg>