<?xml version="1.0" encoding="UTF-8" standalone="no"?><!DOCTYPE svg PUBLIC "-//W3C//DTD SVG 1.1//EN" "http://www.w3.org/Graphics/SVG/1.1/DTD/svg11.dtd"><svg width="100%" height="100%" viewBox="0 0 24 24" version="1.1" xmlns="http://www.w3.org/2000/svg" xmlns:xlink="http://www.w3.org/1999/xlink" xml:space="preserve" xmlns:serif="http://www.serif.com/" style="fill-rule:evenodd;clip-rule:evenodd;stroke-linejoin:round;stroke-miterlimit:2;"><path d="M21.502,23l-19,0l0,-1.612c0,-5.694 3.907,-9.67 9.5,-9.67c5.593,0 9.5,3.976 9.5,9.67l0,1.612Zm-16.436,-3.223l13.874,0c-0.711,-2.914 -3.365,-4.836 -6.937,-4.836c-3.571,0 -6.226,1.922 -6.937,4.836Zm-2.205,-3.194l-1.861,0l0,-0.671c0,-2.373 1.429,-4.03 3.475,-4.03c0.672,0 1.277,0.179 1.747,0.499l-0.029,0.015l-1.12,0.924l-0.597,-0.094c-1.307,0 -2.278,0.8 -2.538,2.014l1.601,0l-0.678,1.343Zm19.201,-1.343c-0.26,-1.214 -1.231,-2.014 -2.538,-2.014l-0.597,0.094l-1.12,-0.924l-0.029,-0.015c0.47,-0.32 1.075,-0.499 1.747,-0.499c2.046,0 3.475,1.657 3.475,4.03l0,0.671l-1.861,0l-0.678,-1.343l1.601,0Zm-2.513,-4.063c1.131,0 2.051,-0.843 2.051,-1.88c0,-1.037 -0.92,-1.88 -2.051,-1.88c-1.132,0 -2.052,0.843 -2.052,1.88c0,1.037 0.92,1.88 2.052,1.88Zm-15.074,0c-1.131,0 -2.051,-0.843 -2.051,-1.88c0,-1.037 0.92,-1.88 2.051,-1.88c1.132,0 2.052,0.843 2.052,1.88c0,1.037 -0.92,1.88 -2.052,1.88Zm15.074,-2.82c0.565,0 1.025,0.421 1.025,0.94c0,0.519 -0.46,0.94 -1.025,0.94c-0.566,0 -1.026,-0.421 -1.026,-0.94c0,-0.519 0.46,-0.94 1.026,-0.94Zm-15.074,0c-0.565,0 -1.025,0.421 -1.025,0.94c0,0.519 0.46,0.94 1.025,0.94c0.566,0 1.026,-0.421 1.026,-0.94c0,-0.519 -0.46,-0.94 -1.026,-0.94Zm7.527,1.669c-2.715,0 -4.923,-2.024 -4.923,-4.513c0,-2.488 2.208,-4.513 4.923,-4.513c2.715,0 4.923,2.025 4.923,4.513c0,2.489 -2.208,4.513 -4.923,4.513Zm0,-6.77c-1.358,0 -2.462,1.011 -2.462,2.257c0,1.244 1.104,2.256 2.462,2.256c1.358,0 2.462,-1.012 2.462,-2.256c0,-1.246 -1.104,-2.257 -2.462,-2.257Z" style="fill:#757575;fill-rule:nonzero;"/><path d="M23,3.445l-2.444,0l0,-2.444l-0.612,0l0,2.444l-2.444,0l0,0.612l2.444,0l0,2.444l0.612,0l0,-2.444l2.444,0l0,-0.612Z" style="fill:#757575;fill-rule:nonzero;"/></svg>