<?xml version="1.0" encoding="UTF-8" standalone="no"?><!DOCTYPE svg PUBLIC "-//W3C//DTD SVG 1.1//EN" "http://www.w3.org/Graphics/SVG/1.1/DTD/svg11.dtd"><svg width="100%" height="100%" viewBox="0 0 24 24" version="1.1" xmlns="http://www.w3.org/2000/svg" xmlns:xlink="http://www.w3.org/1999/xlink" xml:space="preserve" xmlns:serif="http://www.serif.com/" style="fill-rule:evenodd;clip-rule:evenodd;stroke-linejoin:round;stroke-miterlimit:2;"><path d="M18.002,23.006l-17,0l0,-1.063c0,-3.753 3.496,-6.375 8.5,-6.375c5.004,0 8.5,2.622 8.5,6.375l0,1.063Zm-14.706,-2.125l12.413,0c-0.636,-1.921 -3.01,-3.188 -6.206,-3.188c-3.196,0 -5.572,1.267 -6.207,3.188Zm6.206,-6.375c-2.344,0 -4.25,-1.906 -4.25,-4.25c0,-2.343 1.906,-4.25 4.25,-4.25c2.344,0 4.25,1.907 4.25,4.25c0,2.344 -1.906,4.25 -4.25,4.25Zm0,-6.375c-1.172,0 -2.125,0.952 -2.125,2.125c0,1.172 0.953,2.125 2.125,2.125c1.172,0 2.125,-0.953 2.125,-2.125c0,-1.173 -0.953,-2.125 -2.125,-2.125Z" style="fill:#757575;fill-rule:nonzero;"/><path d="M23,5.445l-4.444,0l0,-4.444l-1.112,0l0,4.444l-4.444,0l0,1.112l4.444,0l0,4.444l1.112,0l0,-4.444l4.444,0l0,-1.112Z" style="fill:#757575;fill-rule:nonzero;"/></svg>