<?xml version="1.0" encoding="UTF-8" standalone="no"?><!DOCTYPE svg PUBLIC "-//W3C//DTD SVG 1.1//EN" "http://www.w3.org/Graphics/SVG/1.1/DTD/svg11.dtd"><svg width="100%" height="100%" viewBox="0 0 24 24" version="1.1" xmlns="http://www.w3.org/2000/svg" xmlns:xlink="http://www.w3.org/1999/xlink" xml:space="preserve" xmlns:serif="http://www.serif.com/" style="fill-rule:evenodd;clip-rule:evenodd;stroke-linejoin:round;stroke-miterlimit:2;"><path d="M16.842,23l-14.681,0l0,-1.246c0,-4.4 3.019,-7.472 7.341,-7.472c4.321,0 7.34,3.072 7.34,7.472l0,1.246Zm-12.7,-2.491l10.721,0c-0.55,-2.251 -2.601,-3.736 -5.361,-3.736c-2.759,0 -4.811,1.485 -5.36,3.736Zm-1.704,-2.468l-1.438,0l0,-0.518c0,-1.834 1.104,-3.114 2.685,-3.114c0.52,0 0.987,0.138 1.35,0.385l-0.022,0.012l-0.866,0.714l-0.461,-0.073c-1.01,0 -1.76,0.619 -1.961,1.557l1.237,0l-0.524,1.037Zm14.837,-1.037c-0.201,-0.938 -0.951,-1.557 -1.961,-1.557l-0.461,0.073l-0.866,-0.714l-0.022,-0.012c0.363,-0.247 0.831,-0.385 1.35,-0.385c1.581,0 2.685,1.28 2.685,3.114l0,0.518l-1.438,0l-0.524,-1.037l1.237,0Zm-1.942,-3.14c0.874,0 1.585,-0.651 1.585,-1.453c0,-0.801 -0.711,-1.452 -1.585,-1.452c-0.874,0 -1.585,0.651 -1.585,1.452c0,0.802 0.711,1.453 1.585,1.453Zm-11.648,0c-0.874,0 -1.585,-0.651 -1.585,-1.453c0,-0.801 0.711,-1.452 1.585,-1.452c0.875,0 1.586,0.651 1.586,1.452c0,0.802 -0.711,1.453 -1.586,1.453Zm11.648,-2.179c0.437,0 0.792,0.325 0.792,0.726c0,0.401 -0.355,0.727 -0.792,0.727c-0.437,0 -0.793,-0.326 -0.793,-0.727c0,-0.401 0.356,-0.726 0.793,-0.726Zm-11.648,0c-0.436,0 -0.792,0.325 -0.792,0.726c0,0.401 0.356,0.727 0.792,0.727c0.438,0 0.793,-0.326 0.793,-0.727c0,-0.401 -0.355,-0.726 -0.793,-0.726Zm5.817,1.29c-2.098,0 -3.805,-1.564 -3.805,-3.488c0,-1.922 1.707,-3.487 3.805,-3.487c2.097,0 3.804,1.565 3.804,3.487c0,1.924 -1.707,3.488 -3.804,3.488Zm0,-5.232c-1.05,0 -1.903,0.782 -1.903,1.744c0,0.962 0.853,1.744 1.903,1.744c1.049,0 1.902,-0.782 1.902,-1.744c0,-0.962 -0.853,-1.744 -1.902,-1.744Z" style="fill:#757575;fill-rule:nonzero;"/><path d="M23,5.445l-4.444,0l0,-4.444l-1.112,0l0,4.444l-4.444,0l0,1.112l4.444,0l0,4.444l1.112,0l0,-4.444l4.444,0l0,-1.112Z" style="fill:#757575;fill-rule:nonzero;"/></svg>