<?xml version="1.0" encoding="UTF-8" standalone="no"?>
<!DOCTYPE svg PUBLIC "-//W3C//DTD SVG 1.1//EN" "http://www.w3.org/Graphics/SVG/1.1/DTD/svg11.dtd">
<svg width="100%" height="100%" viewBox="0 0 24 24" version="1.1" xmlns="http://www.w3.org/2000/svg" xmlns:xlink="http://www.w3.org/1999/xlink" xml:space="preserve" xmlns:serif="http://www.serif.com/" style="fill-rule:evenodd;clip-rule:evenodd;stroke-linejoin:round;stroke-miterlimit:2;">
    <g id="Filled_Icons" transform="matrix(1.1,0,0,1.1,-1.2042,-1.2)">
        <path d="M12.042,2C6.519,2 2.042,6.477 2.042,12C2.042,17.523 6.519,22 12.042,22C17.565,22 22.042,17.523 22.042,12C22.042,6.477 17.564,2 12.042,2ZM16.749,15.293L15.335,16.707L12.042,13.415L8.749,16.707L7.335,15.293L10.627,12L7.334,8.707L8.748,7.294L12.041,10.587L15.334,7.294L16.748,8.707L13.456,12L16.749,15.293Z" style="fill:rgb(117,117,117);fill-rule:nonzero;"/>
    </g>
</svg>
