<?xml version="1.0" encoding="UTF-8" standalone="no"?>
<!DOCTYPE svg PUBLIC "-//W3C//DTD SVG 1.1//EN" "http://www.w3.org/Graphics/SVG/1.1/DTD/svg11.dtd">
<svg width="100%" height="100%" viewBox="0 0 24 24" version="1.1" xmlns="http://www.w3.org/2000/svg" xmlns:xlink="http://www.w3.org/1999/xlink" xml:space="preserve" xmlns:serif="http://www.serif.com/" style="fill-rule:evenodd;clip-rule:evenodd;stroke-linejoin:round;stroke-miterlimit:1.41421;">
    <path d="M22.999,20.906L22.999,23L1,23L1,20.906L22.999,20.906ZM19,16.263C17.344,16.263 16,17.784 16,19.661L22,19.661C22,17.784 20.656,16.263 19,16.263ZM12,16.263C10.344,16.263 9,17.784 9,19.661L15,19.661C15,17.784 13.656,16.263 12,16.263ZM5,16.263C3.344,16.263 2,17.784 2,19.661L8,19.661C8,17.784 6.656,16.263 5,16.263ZM19,11.661C20.104,11.661 21,12.593 21,13.741C21,14.889 20.104,15.821 19,15.821C17.896,15.821 17,14.889 17,13.741C17,12.593 17.896,11.661 19,11.661ZM12,11.661C13.104,11.661 14,12.593 14,13.741C14,14.889 13.104,15.821 12,15.821C10.896,15.821 10,14.889 10,13.741C10,12.593 10.896,11.661 12,11.661ZM5,11.62C6.104,11.62 7,12.552 7,13.7C7,14.848 6.104,15.78 5,15.78C3.896,15.78 3,14.848 3,13.7C3,12.552 3.896,11.62 5,11.62ZM21.429,10.383L2.571,10.383C1.881,10.383 1.268,9.932 1.068,9.273C0.866,8.615 1.123,7.902 1.701,7.518L11.129,1.263C11.657,0.912 12.344,0.912 12.872,1.263L22.3,7.518C22.878,7.903 23.133,8.616 22.932,9.273C22.732,9.932 22.119,10.383 21.429,10.383ZM19.5,8.337L12,3.362L4.5,8.337L19.5,8.337Z" style="fill:rgb(117,117,117);"/>
</svg>
