<?xml version="1.0" encoding="UTF-8" standalone="no"?>
<!DOCTYPE svg PUBLIC "-//W3C//DTD SVG 1.1//EN" "http://www.w3.org/Graphics/SVG/1.1/DTD/svg11.dtd">
<svg width="100%" height="100%" viewBox="0 0 24 24" version="1.1" xmlns="http://www.w3.org/2000/svg" xmlns:xlink="http://www.w3.org/1999/xlink" xml:space="preserve" xmlns:serif="http://www.serif.com/" style="fill-rule:evenodd;clip-rule:evenodd;stroke-linejoin:round;stroke-miterlimit:1.41421;">
    <path d="M17.729,22.999L6.271,22.999C5.841,22.999 5.448,22.807 5.252,22.501C5.055,22.197 5.088,21.829 5.337,21.55L11.066,15.133C11.498,14.651 12.501,14.651 12.933,15.133L18.663,21.55C18.912,21.829 18.945,22.197 18.748,22.501C18.552,22.807 18.159,22.999 17.729,22.999ZM15.503,21.166L12,17.243L8.497,21.166L15.503,21.166ZM21.167,12.916L2.833,12.916L2.833,11.082L21.167,11.082L21.167,12.916ZM17.729,0.999C18.159,0.999 18.552,1.191 18.747,1.497C18.944,1.801 18.91,2.169 18.662,2.448L12.933,8.865C12.717,9.106 12.369,9.249 12,9.249C11.631,9.249 11.283,9.106 11.067,8.865L5.338,2.448C5.089,2.169 5.055,1.801 5.252,1.497C5.448,1.191 5.841,0.999 6.271,0.999L17.729,0.999ZM15.503,2.832L12,6.755L8.497,2.832L15.503,2.832Z" style="fill:rgb(117,117,117);"/>
</svg>
