<?xml version="1.0" encoding="UTF-8" standalone="no"?>
<!DOCTYPE svg PUBLIC "-//W3C//DTD SVG 1.1//EN" "http://www.w3.org/Graphics/SVG/1.1/DTD/svg11.dtd">
<svg width="100%" height="100%" viewBox="0 0 24 24" version="1.1" xmlns="http://www.w3.org/2000/svg" xmlns:xlink="http://www.w3.org/1999/xlink" xml:space="preserve" xmlns:serif="http://www.serif.com/" style="fill-rule:evenodd;clip-rule:evenodd;stroke-linejoin:round;stroke-miterlimit:1.41421;">
    <path d="M5.034,17.637L2.604,17.637L2.604,15.757L8.242,15.757L8.242,21.395L6.362,21.395L6.362,18.965L2.329,22.999L1,21.67L5.034,17.637ZM15.758,15.757L21.396,15.757L21.396,17.637L18.966,17.637L23,21.67L21.671,22.999L17.638,18.965L17.638,21.395L15.758,21.395L15.758,15.757ZM13.879,8.241C14.917,8.241 15.758,9.083 15.758,10.12L15.758,13.878C15.758,14.916 14.917,15.757 13.879,15.757L10.121,15.757C9.083,15.757 8.242,14.916 8.242,13.878L8.242,10.12C8.242,9.083 9.083,8.241 10.121,8.241L13.879,8.241ZM13.876,13.878L13.879,10.12L10.121,10.12L10.121,13.878L13.876,13.878ZM5.034,6.361L1,2.328L2.329,0.999L6.362,5.033L6.362,2.603L8.242,2.603L8.242,8.241L2.604,8.241L2.604,6.361L5.034,6.361ZM17.638,2.603L17.638,5.033L21.671,0.999L23,2.328L18.966,6.361L21.396,6.361L21.396,8.241L15.758,8.241L15.758,2.603L17.638,2.603Z" style="fill:rgb(117,117,117);fill-rule:nonzero;"/>
</svg>
