<?xml version="1.0" encoding="UTF-8" standalone="no"?><!DOCTYPE svg PUBLIC "-//W3C//DTD SVG 1.1//EN" "http://www.w3.org/Graphics/SVG/1.1/DTD/svg11.dtd"><svg width="100%" height="100%" viewBox="0 0 24 24" version="1.1" xmlns="http://www.w3.org/2000/svg" xmlns:xlink="http://www.w3.org/1999/xlink" xml:space="preserve" xmlns:serif="http://www.serif.com/" style="fill-rule:evenodd;clip-rule:evenodd;stroke-linejoin:round;stroke-miterlimit:2;"><path d="M12,1l0,2.75l-8.25,0l0,16.5l16.5,0l0,-8.25l2.75,0l0,8.25c0,1.518 -1.232,2.75 -2.75,2.75l-16.5,0c-1.518,0 -2.75,-1.232 -2.75,-2.75l0,-16.5c0,-1.518 1.232,-2.75 2.75,-2.75l8.25,0Zm11,0l0,8.269l-2.756,0l0,-3.564l-7.295,7.295l-1.949,-1.949l7.295,-7.295l-3.564,0l0,-2.756l8.269,0Z" style="fill:#757575;fill-rule:nonzero;"/></svg>