<?xml version="1.0" encoding="UTF-8" standalone="no"?><!DOCTYPE svg PUBLIC "-//W3C//DTD SVG 1.1//EN" "http://www.w3.org/Graphics/SVG/1.1/DTD/svg11.dtd"><svg width="100%" height="100%" viewBox="0 0 24 24" version="1.1" xmlns="http://www.w3.org/2000/svg" xmlns:xlink="http://www.w3.org/1999/xlink" xml:space="preserve" xmlns:serif="http://www.serif.com/" style="fill-rule:evenodd;clip-rule:evenodd;stroke-linejoin:round;stroke-miterlimit:2;"><path d="M8.906,2.375c0.861,0 1.685,0.411 2.2,1.1l2.269,3.025l0.707,0c-0.428,0.901 -0.818,1.832 -1.103,2.721c-0.712,-0.105 -1.368,-0.489 -1.804,-1.071l-2.269,-3.025l-5.156,0l0,13.75l16.501,0l0,-2.052c1.214,-0.558 2.194,-1.54 2.749,-2.755l0,4.807c0,1.517 -1.233,2.75 -2.75,2.75l-16.5,0c-1.517,0 -2.75,-1.233 -2.75,-2.75l0,-13.75c0,-1.515 1.233,-2.75 2.75,-2.75l5.156,0Z" style="fill:#757575;fill-rule:nonzero;"/><path d="M18.342,1.486c0.291,0.029 0.563,0.186 0.732,0.44c0.427,0.64 4.168,6.345 4.168,9.555c0,2.724 -2.189,4.946 -4.9,4.999l0,0.001c-0.014,0 -0.028,0 -0.042,0c-0.014,0 -0.028,0 -0.042,0l0,-0.001c-2.711,-0.053 -4.9,-2.275 -4.9,-4.999c0,-3.21 3.741,-8.915 4.168,-9.555c0.169,-0.254 0.441,-0.411 0.732,-0.44l0,-0.005c0.014,0 0.028,0.001 0.042,0.002c0.014,-0.001 0.028,-0.002 0.042,-0.002l0,0.005Zm-0.042,2.965c-1.028,1.904 -2.942,5.727 -2.942,7.03c0,1.635 1.314,2.969 2.942,3c1.628,-0.031 2.942,-1.365 2.942,-3c0,-1.303 -1.914,-5.126 -2.942,-7.03Z" style="fill:#757575;fill-rule:nonzero;"/></svg>