<?xml version="1.0" encoding="UTF-8" standalone="no"?><!DOCTYPE svg PUBLIC "-//W3C//DTD SVG 1.1//EN" "http://www.w3.org/Graphics/SVG/1.1/DTD/svg11.dtd"><svg width="100%" height="100%" viewBox="0 0 24 24" version="1.1" xmlns="http://www.w3.org/2000/svg" xmlns:xlink="http://www.w3.org/1999/xlink" xml:space="preserve" xmlns:serif="http://www.serif.com/" style="fill-rule:evenodd;clip-rule:evenodd;stroke-linejoin:round;stroke-miterlimit:2;"><rect id="Frame_-_24px" x="0" y="0" width="24" height="24" style="fill:none;"/><g id="Line_Icons"><path d="M17.414,0l-7.414,0c-1.103,0 -2,0.898 -2,2l0,14c0,1.103 0.897,2 2,2l10,0c1.103,0 2,-0.897 2,-2l0,-11.414l-4.586,-4.586Zm2.587,16l-10.001,0l0,-14l6,0l0,4l4,0l0.001,10Z" style="fill:#757575;fill-rule:nonzero;"/><path d="M7,3l-2,0l0,16c0,1.103 0.897,2 2,2l12,0l0,-2l-12,0l0,-16Z" style="fill:#757575;fill-rule:nonzero;"/><path d="M4,6l-2,0l0,16c0,1.103 0.897,2 2,2l12,0l0,-2l-12,0l0,-16Z" style="fill:#757575;fill-rule:nonzero;"/></g><path d="M12.908,7.079l0,4.376l0.965,0l0,-4.376l1.589,1.549l0.683,-0.665l-2.754,-2.684l-2.754,2.684l0.682,0.665l1.589,-1.549Z" style="fill:#757575;fill-rule:nonzero;"/><path d="M17.365,13.328l0,-4.376l-0.965,0l0,4.376l-1.589,-1.549l-0.682,0.665l2.754,2.685l2.754,-2.685l-0.683,-0.665l-1.589,1.549Z" style="fill:#757575;fill-rule:nonzero;"/></svg>