<?xml version="1.0" encoding="UTF-8" standalone="no"?><!DOCTYPE svg PUBLIC "-//W3C//DTD SVG 1.1//EN" "http://www.w3.org/Graphics/SVG/1.1/DTD/svg11.dtd"><svg width="100%" height="100%" viewBox="0 0 24 24" version="1.1" xmlns="http://www.w3.org/2000/svg" xmlns:xlink="http://www.w3.org/1999/xlink" xml:space="preserve" xmlns:serif="http://www.serif.com/" style="fill-rule:evenodd;clip-rule:evenodd;stroke-linejoin:round;stroke-miterlimit:1.41421;"><g id="Line_Icons"><path d="M3.472,15.134c-1.389,-1.297 -2.212,-2.448 -2.289,-2.558c-0.244,-0.345 -0.244,-0.806 0,-1.151c0.184,-0.263 4.595,-6.425 10.817,-6.425c0.948,0 1.854,0.143 2.71,0.387l-1.685,1.684c-0.335,-0.046 -0.677,-0.071 -1.025,-0.071c-0.312,0 -0.62,0.02 -0.923,0.058c-3.395,0.606 -5.67,2.691 -7.058,4.1c-0.304,0.308 -0.531,0.607 -0.719,0.842c0.027,0.032 0.417,0.607 0.939,1.075c0.409,0.419 0.897,0.878 1.452,1.331l-1.373,1.494c-0.3,-0.213 -0.582,-0.55 -0.846,-0.766Z" style="fill:#767676;fill-rule:nonzero;"/><path d="M9.199,16.467c0.865,0.331 1.811,0.533 2.801,0.533c4.18,0 7.552,-3.572 8.731,-4.999c-0.65,-0.783 -1.964,-2.216 -3.724,-3.337l-0.021,-0.013l-1.46,1.461c0.302,0.563 0.474,1.206 0.474,1.888c0,2.206 -1.794,4 -4,4c-0.682,0 -1.326,-0.172 -1.888,-0.474l-0.913,0.941Zm4.773,-4.802l-2.306,2.307c0.108,0.018 0.22,0.028 0.334,0.028c1.103,0 2,-0.897 2,-2c0,-0.114 -0.01,-0.226 -0.028,-0.335Zm-10.59,10.591l-1.389,-1.389l3.86,-3.859l1.466,-1.467l7.856,-7.856l1.504,-1.504l4.437,-4.437l1.388,1.389l-4.07,4.07l0.031,0.021c2.615,1.77 4.242,4.043 4.352,4.201c0.244,0.345 0.244,0.805 0,1.151c-0.184,0.262 -4.595,6.424 -10.817,6.424c-1.569,0 -3.022,-0.392 -4.358,-1.004l-4.26,4.26Z" style="fill:#767676;"/></g></svg>