<?xml version="1.0" encoding="UTF-8" standalone="no"?><!DOCTYPE svg PUBLIC "-//W3C//DTD SVG 1.1//EN" "http://www.w3.org/Graphics/SVG/1.1/DTD/svg11.dtd"><svg width="100%" height="100%" viewBox="0 0 24 24" version="1.1" xmlns="http://www.w3.org/2000/svg" xmlns:xlink="http://www.w3.org/1999/xlink" xml:space="preserve" xmlns:serif="http://www.serif.com/" style="fill-rule:evenodd;clip-rule:evenodd;stroke-linejoin:round;stroke-miterlimit:2;"><g id="Line_Icons"><path d="M12,22.5c-5.79,0 -10.5,-4.709 -10.5,-10.5c0,-5.789 4.71,-10.5 10.5,-10.5c5.79,0 10.5,4.71 10.5,10.5c0,5.791 -4.71,10.5 -10.5,10.5Zm0,-18.9c-4.632,0 -8.4,3.768 -8.4,8.4c0,4.632 3.768,8.4 8.4,8.4c4.632,0 8.4,-3.768 8.4,-8.4c0,-4.632 -3.768,-8.4 -8.4,-8.4Z" style="fill:#757575;fill-rule:nonzero;"/><path d="M13.05,15.15l0,-4.2c0,-0.58 -0.469,-1.05 -1.05,-1.05l-2.1,0l0,2.1l1.05,0l0,3.15l-2.1,0l0,2.1l6.3,0l0,-2.1l-2.1,0Z" style="fill:#757575;fill-rule:nonzero;"/><circle cx="12" cy="7.8" r="1.313" style="fill:#757575;"/></g></svg>