<?xml version="1.0" encoding="UTF-8" standalone="no"?><!DOCTYPE svg PUBLIC "-//W3C//DTD SVG 1.1//EN" "http://www.w3.org/Graphics/SVG/1.1/DTD/svg11.dtd"><svg width="100%" height="100%" viewBox="0 0 24 24" version="1.1" xmlns="http://www.w3.org/2000/svg" xmlns:xlink="http://www.w3.org/1999/xlink" xml:space="preserve" xmlns:serif="http://www.serif.com/" style="fill-rule:evenodd;clip-rule:evenodd;stroke-linejoin:round;stroke-miterlimit:1.41421;"><path id="circle" d="M13.001,21.998l-2,0l0,-3.75l2,0l0,3.75Zm-3.258,-4.085l-1.732,-1l-1.875,3.248l1.732,1l1.875,-3.248Zm8.124,2.244l-1.874,-3.247l-1.732,0.999l1.874,3.248l1.732,-1Zm-10.779,-4.167l-1,-1.732l-3.248,1.875l1,1.732l3.248,-1.875Zm14.074,0.143l-3.247,-1.877l-1.001,1.732l3.247,1.877l1.001,-1.732Zm-15.412,-3.132l-3.75,0l0,-2l3.75,0l0,2Zm16.25,-0.004l-3.75,0l0,-2l3.75,0l0,2Zm-0.838,-5.136l-3.247,1.877l-1.001,-1.732l3.247,-1.877l1.001,1.732Zm-14.074,0.143l-1,1.732l-3.248,-1.875l1,-1.732l3.248,1.875Zm10.779,-4.167l-1.874,3.247l-1.732,-0.999l1.874,-3.248l1.732,1Zm-8.124,2.244l-1.732,1l-1.875,-3.248l1.732,-1l1.875,3.248Z" style="fill:#757575;"/><rect id="hand" x="11.001" y="2" width="2" height="6" style="fill:#757575;"/></svg>