<?xml version="1.0" encoding="UTF-8" standalone="no"?><!DOCTYPE svg PUBLIC "-//W3C//DTD SVG 1.1//EN" "http://www.w3.org/Graphics/SVG/1.1/DTD/svg11.dtd"><svg width="100%" height="100%" viewBox="0 0 24 24" version="1.1" xmlns="http://www.w3.org/2000/svg" xmlns:xlink="http://www.w3.org/1999/xlink" xml:space="preserve" xmlns:serif="http://www.serif.com/" style="fill-rule:evenodd;clip-rule:evenodd;stroke-linejoin:round;stroke-miterlimit:1.41421;"><rect id="hand" x="11" y="1.375" width="2" height="6" style="fill:#1f1313;"/><path id="circle" d="M12.712,19.428l0,3.197l-1.424,0l0,-3.197l1.424,0Zm3.629,-1.333l1.588,2.751l-1.233,0.712l-1.588,-2.751l1.233,-0.712Zm-8.682,0l1.233,0.712l-1.588,2.751l-1.233,-0.712l1.588,-2.751Zm-2.466,-2.987l0.712,1.233l-2.751,1.588l-0.712,-1.233l2.751,-1.588Zm13.614,0l2.751,1.588l-0.712,1.233l-2.751,-1.588l0.712,-1.233Zm-14.235,-3.82l0,1.424l-3.197,0l0,-1.424l3.197,0Zm14.856,0l3.197,0l0,1.424l-3.197,0l0,-1.424Zm-13.523,-3.629l-0.712,1.233l-2.751,-1.588l0.712,-1.233l2.751,1.588Zm12.19,0l2.751,-1.588l0.712,1.233l-2.751,1.588l-0.712,-1.233Zm-10.791,-5.217l2.086,3.613l-1.226,0.724l-2.093,-3.625l1.233,-0.712Zm8.532,4.337l-1.226,-0.724l2.086,-3.613l1.233,0.712l-2.093,3.625Z" style="fill:#1f1313;"/></svg>