<?xml version="1.0" encoding="UTF-8" standalone="no"?><!DOCTYPE svg PUBLIC "-//W3C//DTD SVG 1.1//EN" "http://www.w3.org/Graphics/SVG/1.1/DTD/svg11.dtd"><svg width="100%" height="100%" viewBox="0 0 24 24" version="1.1" xmlns="http://www.w3.org/2000/svg" xmlns:xlink="http://www.w3.org/1999/xlink" xml:space="preserve" xmlns:serif="http://www.serif.com/" style="fill-rule:evenodd;clip-rule:evenodd;stroke-linejoin:round;stroke-miterlimit:1.41421;"><g id="Line_Icons"><path d="M12.778,6.821l-1.556,1.558l2.527,2.521l-12.749,0l0,2.2l12.74,0l-2.519,2.523l1.558,1.555l5.176,-5.188l-5.177,-5.169Z" style="fill:#757575;fill-rule:nonzero;"/><path d="M12,1c-4.916,0 -9.087,3.244 -10.493,7.7l2.34,0c1.31,-3.22 4.468,-5.5 8.153,-5.5c4.852,0 8.8,3.948 8.8,8.8c0,4.852 -3.948,8.8 -8.8,8.8c-3.685,0 -6.843,-2.279 -8.152,-5.5l-2.341,0c1.405,4.457 5.576,7.7 10.493,7.7c6.065,0 11,-4.935 11,-11c0,-6.065 -4.935,-11 -11,-11Z" style="fill:#757575;fill-rule:nonzero;"/></g></svg>