<?xml version="1.0" encoding="UTF-8" standalone="no"?><!DOCTYPE svg PUBLIC "-//W3C//DTD SVG 1.1//EN" "http://www.w3.org/Graphics/SVG/1.1/DTD/svg11.dtd"><svg width="100%" height="100%" viewBox="0 0 24 24" version="1.1" xmlns="http://www.w3.org/2000/svg" xmlns:xlink="http://www.w3.org/1999/xlink" xml:space="preserve" xmlns:serif="http://www.serif.com/" style="fill-rule:evenodd;clip-rule:evenodd;stroke-linejoin:round;stroke-miterlimit:1.41421;"><g id="Line_Icons"><path d="M15.3,9.8c0,-1.822 -1.478,-3.3 -3.3,-3.3c-1.822,0 -3.3,1.478 -3.3,3.3c0,1.273 0.728,2.364 1.784,2.915l-0.684,4.785l4.4,0l-0.684,-4.785c1.056,-0.551 1.784,-1.642 1.784,-2.915Z" style="fill:#757575;fill-rule:nonzero;"/><path d="M12,23c-6.065,0 -11,-4.935 -11,-11c0,-6.065 4.935,-11 11,-11c6.065,0 11,4.935 11,11c0,6.065 -4.935,11 -11,11Zm0,-19.8c-4.852,0 -8.8,3.948 -8.8,8.8c0,4.852 3.948,8.8 8.8,8.8c4.852,0 8.8,-3.948 8.8,-8.8c0,-4.852 -3.948,-8.8 -8.8,-8.8Z" style="fill:#757575;fill-rule:nonzero;"/></g></svg>