<?xml version="1.0" encoding="UTF-8" standalone="no"?>
<!DOCTYPE svg PUBLIC "-//W3C//DTD SVG 1.1//EN" "http://www.w3.org/Graphics/SVG/1.1/DTD/svg11.dtd">
<svg width="100%" height="100%" viewBox="0 0 24 24" version="1.1" xmlns="http://www.w3.org/2000/svg" xmlns:xlink="http://www.w3.org/1999/xlink" xml:space="preserve" xmlns:serif="http://www.serif.com/" style="fill-rule:evenodd;clip-rule:evenodd;stroke-linejoin:round;stroke-miterlimit:2;">
    <g transform="matrix(1.1,0,0,1.1,-1.2042,-1.2)">
        <g id="Line_Icons">
            <g>
                <g>
                    <path d="M12.042,22C6.528,22 2.042,17.514 2.042,12C2.042,6.486 6.528,2 12.042,2C17.556,2 22.042,6.486 22.042,12C22.042,17.514 17.556,22 12.042,22ZM12.042,4C7.631,4 4.042,7.589 4.042,12C4.042,16.411 7.631,20 12.042,20C16.453,20 20.042,16.411 20.042,12C20.042,7.589 16.453,4 12.042,4Z" style="fill:rgb(117,117,117);fill-rule:nonzero;"/>
                </g>
            </g>
        </g>
    </g>
</svg>
