<?xml version="1.0" encoding="UTF-8" standalone="no"?>
<!DOCTYPE svg PUBLIC "-//W3C//DTD SVG 1.1//EN" "http://www.w3.org/Graphics/SVG/1.1/DTD/svg11.dtd">
<svg width="100%" height="100%" viewBox="0 0 24 24" version="1.1" xmlns="http://www.w3.org/2000/svg" xmlns:xlink="http://www.w3.org/1999/xlink" xml:space="preserve" xmlns:serif="http://www.serif.com/" style="fill-rule:evenodd;clip-rule:evenodd;stroke-linejoin:round;stroke-miterlimit:1.41421;">
    <path d="M16.496,1L21.167,5.586L21.167,21C21.167,22.103 20.253,23 19.13,23L4.87,23C3.747,23 2.833,22.103 2.833,21L2.833,3C2.833,1.898 3.747,1 4.87,1L16.496,1ZM15.056,7L15.056,3L4.87,3L4.87,21L19.131,21L19.13,7L15.056,7ZM9.628,19.227L8.495,19.227L9.152,16.008L7.875,16.008L7.875,14.883L9.379,14.883L9.938,12.14L7.875,12.14L7.875,11.014L10.164,11.014L10.822,7.773L11.955,7.773L11.297,11.014L13.677,11.014L14.335,7.773L15.475,7.773L14.818,11.014L16.125,11.014L16.125,12.14L14.591,12.14L14.025,14.883L16.125,14.883L16.125,16.008L13.798,16.008L13.141,19.227L12.008,19.227L12.657,16.008L10.285,16.008L9.628,19.227ZM13.451,12.14L11.071,12.14L10.512,14.883L12.884,14.883L13.451,12.14Z" style="fill:rgb(117,117,117);fill-rule:nonzero;"/>
</svg>
