<?xml version="1.0" encoding="UTF-8" standalone="no"?>
<!DOCTYPE svg PUBLIC "-//W3C//DTD SVG 1.1//EN" "http://www.w3.org/Graphics/SVG/1.1/DTD/svg11.dtd">
<svg width="100%" height="100%" viewBox="0 0 24 24" version="1.1" xmlns="http://www.w3.org/2000/svg" xmlns:xlink="http://www.w3.org/1999/xlink" xml:space="preserve" xmlns:serif="http://www.serif.com/" style="fill-rule:evenodd;clip-rule:evenodd;stroke-linejoin:round;stroke-miterlimit:2;">
    <g id="Line_Icons" transform="matrix(1.1,0,0,1.1,-1.2,-1.2)">
        <path d="M12,2C9.285,2 6.779,3.089 4.938,4.938L3,3L3,9L9,9L6.351,6.351C7.824,4.871 9.828,4 12,4C16.411,4 20,7.589 20,12C20,16.411 16.411,20 12,20C7.589,20 4,16.411 4,12L2,12C2,17.515 6.486,22 12,22C17.514,22 22,17.515 22,12C22,6.485 17.514,2 12,2Z" style="fill:rgb(117,117,117);fill-rule:nonzero;"/>
    </g>
</svg>
