<?xml version="1.0" encoding="UTF-8" standalone="no"?><!DOCTYPE svg PUBLIC "-//W3C//DTD SVG 1.1//EN" "http://www.w3.org/Graphics/SVG/1.1/DTD/svg11.dtd"><svg width="100%" height="100%" viewBox="0 0 24 24" version="1.1" xmlns="http://www.w3.org/2000/svg" xmlns:xlink="http://www.w3.org/1999/xlink" xml:space="preserve" xmlns:serif="http://www.serif.com/" style="fill-rule:evenodd;clip-rule:evenodd;stroke-linejoin:round;stroke-miterlimit:1.41421;"><g id="Line_Icons"><path d="M22.817,11.425c-0.184,-0.263 -4.595,-6.425 -10.817,-6.425c-6.222,0 -10.633,6.162 -10.817,6.425c-0.244,0.345 -0.244,0.806 0,1.151c0.184,0.262 4.595,6.424 10.817,6.424c6.222,0 10.633,-6.162 10.817,-6.424c0.244,-0.346 0.244,-0.806 0,-1.151Zm-10.817,5.575c-4.166,0 -7.549,-3.575 -8.731,-5.001c1.179,-1.426 4.551,-4.999 8.731,-4.999c4.166,0 7.549,3.576 8.731,5.001c-1.179,1.427 -4.551,4.999 -8.731,4.999Z" style="fill:#767676;fill-rule:nonzero;"/><path d="M12,8c-2.206,0 -4,1.795 -4,4c0,2.206 1.794,4 4,4c2.206,0 4,-1.794 4,-4c0,-2.205 -1.794,-4 -4,-4Zm0,6c-1.103,0 -2,-0.897 -2,-2c0,-1.102 0.897,-2 2,-2c1.103,0 2,0.898 2,2c0,1.103 -0.897,2 -2,2Z" style="fill:#767676;fill-rule:nonzero;"/></g></svg>