<?xml version="1.0" encoding="UTF-8" standalone="no"?>
<!DOCTYPE svg PUBLIC "-//W3C//DTD SVG 1.1//EN" "http://www.w3.org/Graphics/SVG/1.1/DTD/svg11.dtd">
<svg width="100%" height="100%" viewBox="0 0 24 24" version="1.1" xmlns="http://www.w3.org/2000/svg" xmlns:xlink="http://www.w3.org/1999/xlink" xml:space="preserve" xmlns:serif="http://www.serif.com/" style="fill-rule:evenodd;clip-rule:evenodd;stroke-linejoin:round;stroke-miterlimit:2;">
    <g transform="matrix(0.681818,0,0,0.681818,0.318182,3.65909)">
        <path d="M21,3L18,3L18,1L16,1L16,7L18,7L18,5L21,5L21,20L3,20L3,5L5,5L5,3L3,3C1.896,3 1,3.895 1,5L1,20C1,21.104 1.896,22 3,22L21,22C22.104,22 23,21.104 23,20L23,5C23,3.895 22.104,3 21,3Z" style="fill:rgb(117,117,117);fill-rule:nonzero;"/>
        <path d="M8,5L15,5L15,3L8,3L8,1L6,1L6,7L8,7L8,5Z" style="fill:rgb(117,117,117);fill-rule:nonzero;"/>
        <rect x="5" y="9" width="4" height="4" style="fill:rgb(117,117,117);"/>
        <rect x="10" y="9" width="4" height="4" style="fill:rgb(117,117,117);"/>
        <rect x="15" y="9" width="4" height="4" style="fill:rgb(117,117,117);"/>
        <rect x="5" y="14" width="4" height="4" style="fill:rgb(117,117,117);"/>
        <rect x="10" y="14" width="4" height="4" style="fill:rgb(117,117,117);"/>
    </g>
    <g transform="matrix(0.637349,0,0,-0.637349,7.89038,21.0684)">
        <path d="M22.293,17.286L20,19.579L20,5.05L18,5.05L18,19.579L15.707,17.286L14.293,18.7L19,23.407L23.707,18.7L22.293,17.286Z" style="fill:rgb(117,117,117);fill-rule:nonzero;"/>
    </g>
</svg>
