<?xml version="1.0" encoding="UTF-8" standalone="no"?>
<!DOCTYPE svg PUBLIC "-//W3C//DTD SVG 1.1//EN" "http://www.w3.org/Graphics/SVG/1.1/DTD/svg11.dtd">
<svg width="100%" height="100%" viewBox="0 0 24 24" version="1.1" xmlns="http://www.w3.org/2000/svg" xmlns:xlink="http://www.w3.org/1999/xlink" xml:space="preserve" xmlns:serif="http://www.serif.com/" style="fill-rule:evenodd;clip-rule:evenodd;stroke-linejoin:round;stroke-miterlimit:2;">
    <g transform="matrix(0.637349,0,0,0.637349,7.89038,2.93158)">
        <path d="M22.293,17.286L20,19.579L20,5.05L18,5.05L18,19.579L15.707,17.286L14.293,18.7L19,23.407L23.707,18.7L22.293,17.286Z" style="fill:rgb(117,117,117);fill-rule:nonzero;"/>
    </g>
    <g transform="matrix(1.16245,0,0,1,-0.891353,0.365522)">
        <g transform="matrix(10.323,0,0,12,1.29606,16.5925)">
            <path d="M0.337,-0.636L0.339,-0.636L0.457,-0.289L0.217,-0.289L0.337,-0.636ZM0.117,-0L0.19,-0.212L0.484,-0.212L0.557,-0L0.648,-0L0.386,-0.743L0.294,-0.743L0.032,-0L0.117,-0Z" style="fill:rgb(117,117,117);fill-rule:nonzero;"/>
        </g>
        <g transform="matrix(10.323,0,0,12,8.09551,16.5925)">
            <path d="M0.581,-0L0.581,-0.073L0.151,-0.073L0.581,-0.676L0.581,-0.74L0.068,-0.74L0.068,-0.666L0.473,-0.666L0.04,-0.062L0.04,-0L0.581,-0Z" style="fill:rgb(117,117,117);fill-rule:nonzero;"/>
        </g>
    </g>
</svg>
