<?xml version="1.0" encoding="UTF-8" standalone="no"?>
<!DOCTYPE svg PUBLIC "-//W3C//DTD SVG 1.1//EN" "http://www.w3.org/Graphics/SVG/1.1/DTD/svg11.dtd">
<svg width="100%" height="100%" viewBox="0 0 24 24" version="1.1" xmlns="http://www.w3.org/2000/svg" xmlns:xlink="http://www.w3.org/1999/xlink" xml:space="preserve" xmlns:serif="http://www.serif.com/" style="fill-rule:evenodd;clip-rule:evenodd;stroke-linejoin:round;stroke-miterlimit:1.41421;">
    <path d="M14.144,1.628L14.144,4.047C14.473,4.132 14.781,4.259 15.092,4.38L13.789,6.16C13.222,5.996 12.626,5.903 12.007,5.903C8.471,5.903 5.596,8.778 5.596,12.314C5.596,15.851 8.471,18.726 12.007,18.726C15.543,18.726 18.419,15.851 18.419,12.314C18.419,12.277 18.413,12.242 18.413,12.202L20.152,9.828C20.188,9.946 20.244,10.056 20.275,10.177L22.693,10.177L22.693,14.451L20.275,14.451C20.025,15.416 19.621,16.315 19.075,17.115L20.697,18.737L18.431,21.005L16.808,19.383C16.008,19.928 15.107,20.333 14.144,20.582L14.144,23L9.87,23L9.87,20.582C8.907,20.332 8.007,19.928 7.206,19.383L5.584,21.005L3.318,18.737L4.94,17.115C4.394,16.315 3.989,15.416 3.74,14.451L1.321,14.451L1.321,10.177L3.74,10.177C3.99,9.214 4.394,8.314 4.94,7.513L3.318,5.891L5.584,3.624L7.206,5.247C8.007,4.701 8.907,4.298 9.87,4.047L9.87,1.628L14.144,1.628ZM13.302,14.888L8.16,11.033L9.443,9.322L12.849,11.877L20.76,1L22.489,2.257L13.302,14.888Z" style="fill:rgb(117,117,117);fill-rule:nonzero;"/>
</svg>
