<svg style="display:none;">
    <symbol id="navbar-content-view" viewBox="0 0 24 24">
        <path fill=“currentColor” d="M9 7.968H4c-1.104 0-2-.595-2-1.326V3.327c0-.731.896-1.326 2-1.326h5c1.104 0 2 .595 2 1.326v3.315c0 .731-.896 1.326-2 1.326zM4 3.327v3.315h4.997L9 3.327H4zm16 4.641h-5c-1.104 0-2-.595-2-1.326V3.327c0-.731.896-1.326 2-1.326h5c1.104 0 2 .595 2 1.326v3.315c0 .731-.896 1.326-2 1.326zm-5-4.641v3.315h4.997L20 3.327h-5zM9 14.968H4c-1.104 0-2-.595-2-1.326v-3.315c0-.731.896-1.326 2-1.326h5c1.104 0 2 .595 2 1.326v3.315c0 .731-.896 1.326-2 1.326zm-5-4.641v3.315h4.997L9 10.327H4zm16 4.641h-5c-1.104 0-2-.595-2-1.326v-3.315c0-.731.896-1.326 2-1.326h5c1.104 0 2 .595 2 1.326v3.315c0 .731-.896 1.326-2 1.326zm-5-4.641v3.315h4.997L20 10.327h-5zM9 21.968H4c-1.104 0-2-.595-2-1.326v-3.315c0-.731.896-1.326 2-1.326h5c1.104 0 2 .595 2 1.326v3.315c0 .731-.896 1.326-2 1.326zm-5-4.641v3.315h4.997L9 17.327H4zm16 4.641h-5c-1.104 0-2-.595-2-1.326v-3.315c0-.731.896-1.326 2-1.326h5c1.104 0 2 .595 2 1.326v3.315c0 .731-.896 1.326-2 1.326zm-5-4.641v3.315h4.997L20 17.327h-5z" fill="#757575" fill-rule="nonzero" />
    </symbol>
</svg> 