<svg style="display:none;">

    <!-- SVG's have been optimized at: https://jakearchibald.github.io/svgomg/ -->
    
    <!-- Milliman Access Portal Logo -->
    <symbol id="map-logo" viewBox="0 0 210 16">
        <path id="map-logo-brand" fill-rule="nonzero" d="M1.617 14.858V2.82h.041c.32 1.179.56 1.799.92 2.779l3.541 9.259h1.58L11.24 5.6c.34-.981.7-1.941.9-2.72h.04v11.978h1.738V.06H11.58L6.999 12.64h-.04L2.298.06H0v14.798h1.618zm17.521-12.82L19.137.36H17.34v1.678h1.797zm-.04 12.82V4.3h-1.717v10.558h1.717zM22.38.06h1.717v14.798H22.38zm5 0h1.718v14.798H27.38zm6.757 1.978V.36H32.34v1.678h1.797zm-.04 12.82V4.3H32.38v10.558h1.717zm4.881 0l-.001-7.601c1.121-1.039 2.122-1.699 3.282-1.699 1.381 0 1.841.66 1.841 2.059v7.241h1.717V7.257c1.101-1.039 2.082-1.699 3.262-1.699 1.381 0 1.841.66 1.841 2.059v7.241h1.717V7.237c0-1.899-.898-3.157-3.058-3.157-1.58 0-2.881.859-3.901 1.858-.36-1.099-1.119-1.858-2.899-1.858-1.58 0-2.801.819-3.801 1.818V4.3H37.26v10.558h1.718zm19.46-1.198c-1.1 0-1.781-.54-1.781-1.56 0-1.321 1.341-2.301 5.363-2.941v2.961c-.98.96-2.181 1.54-3.582 1.54zm-.5 1.358c1.581 0 2.901-.52 4.082-1.618 0 .599.1 1.019.24 1.458h1.757c-.22-.539-.3-1.318-.3-2.598V7.598c0-2.2-.998-3.518-3.518-3.518-2.101 0-3.681.839-4.899 1.958l.898 1.08c1.04-.9 2.22-1.601 3.821-1.601 1.301 0 2.001.641 2.001 1.961v.48c-5.242.74-7.06 2.261-7.06 4.402 0 1.699 1.158 2.657 2.978 2.657zm10.46-.16V7.257c1.1-1.039 2.161-1.699 3.421-1.699 1.341 0 1.941.66 1.941 2.059v7.241h1.718l-.001-7.621c.001-1.999-1.098-3.157-3.118-3.157-1.72 0-3.041.898-3.962 1.798l.001-1.578H66.66v10.558h1.737z" />
        <path id="map-logo-product" fill-rule="nonzero" d="M88.459 3.137h.04l2.019 6.003h-4.119l2.06-6.003zM84.42 14.858l1.219-3.521 5.619.001 1.2 3.52h2.56L89.778 0h-2.459L82.08 14.858h2.34zm16.438.22c2.56-.001 3.82-1.419 4.579-3.118l-2.039-.741c-.58 1.501-1.36 1.841-2.48 1.841-1.62 0-2.54-1.24-2.54-3.501 0-2.541 1.18-3.462 2.58-3.462 1.18 0 1.94.581 2.36 1.781l2.08-.74c-.64-1.64-1.76-3.098-4.4-3.098-2.36 0-5.098 1.458-5.098 5.519 0 3.881 2.498 5.518 4.958 5.518zm10.74 0c2.56-.001 3.82-1.419 4.58-3.118l-2.04-.741c-.58 1.501-1.36 1.841-2.48 1.841-1.62 0-2.54-1.24-2.54-3.501 0-2.541 1.18-3.462 2.58-3.462 1.18 0 1.94.581 2.36 1.781l2.08-.74c-.64-1.64-1.76-3.098-4.4-3.098-2.36 0-5.098 1.458-5.098 5.519 0 3.881 2.498 5.518 4.958 5.518zm10.901 0c1.901-.001 3.36-.7 4.459-1.918l-1.299-1.281c-.799.781-1.599 1.241-2.98 1.241-1.561 0-2.741-.841-2.841-2.762h7.259v-.58c0-4.32-2.277-5.738-4.658-5.738-2.201 0-5.059 1.478-5.059 5.519 0 3.901 2.457 5.519 5.119 5.519zm-2.621-6.558c.24-1.802 1.34-2.482 2.541-2.482 1.481 0 2.281.86 2.421 2.482h-4.962zm13.061 6.558c2.421-.001 4.439-1.039 4.439-3.278 0-2.481-2.218-2.942-4.039-3.342-1.261-.28-2.321-.54-2.321-1.4 0-.6.44-1.081 1.801-1.081.96 0 2.221.521 3 1.161l1.179-1.6c-1.099-.919-2.338-1.498-4.359-1.498-2.341 0-3.939 1.258-3.939 3.118 0 2.461 2.178 2.941 3.999 3.361 1.28.3 2.361.56 2.361 1.421 0 .88-.8 1.22-2.121 1.22-1.361 0-2.541-.58-3.34-1.26l-1.339 1.5c.959.978 2.718 1.678 4.679 1.678zm10.26 0c2.421-.001 4.438-1.039 4.438-3.278 0-2.481-2.217-2.942-4.038-3.342-1.261-.28-2.321-.54-2.321-1.4 0-.6.44-1.081 1.801-1.081.96 0 2.221.521 3 1.161l1.179-1.6c-1.099-.919-2.338-1.498-4.359-1.498-2.341 0-3.939 1.258-3.939 3.118 0 2.461 2.178 2.941 3.999 3.361 1.28.3 2.361.56 2.361 1.421 0 .88-.8 1.22-2.121 1.22-1.361 0-2.541-.58-3.34-1.26l-1.339 1.5c.959.978 2.718 1.678 4.679 1.678zm14.379-.22V9.237l2.621.001c3.041 0 5.779-1.059 5.779-4.639 0-3.42-2.498-4.539-5.699-4.539H155.1v14.798h2.478zm0-12.52h2.721c2.221 0 3.221.7 3.221 2.341 0 1.701-1 2.381-3.201 2.381h-2.742V2.338zm14.161 12.74c2.581-.001 5.179-1.638 5.179-5.519 0-3.921-2.598-5.519-5.179-5.519-2.601 0-5.179 1.598-5.179 5.519 0 3.881 2.598 5.518 5.179 5.518zm0-2.057c-1.881 0-2.701-1.441-2.701-3.461 0-2.141.92-3.422 2.701-3.422 1.861 0 2.701 1.441 2.701 3.422 0 2.181-.92 3.461-2.701 3.461zm9.799 1.837v-6.72c.7-1.141 1.7-1.881 3.28-1.881.139 0 .54.02.66.04l.079-2.257h-.16c-2.019 0-3.16.879-3.82 1.938h-.04V4.24h-2.457v10.618h2.457zm9.9.14c.62 0 1.54-.08 1.8-.14V12.92c-.24.08-.701.14-1.06.14-1.22 0-1.56-.46-1.56-1.601V6.197l2.739.001V4.24h-2.739V.54h-2.458v3.7h-1.84v1.958h1.84v5.882c0 1.919.579 2.918 3.278 2.918zm7.1-1.878c-.9 0-1.48-.44-1.48-1.28 0-1.161 1.56-1.881 4.502-2.281V11.9c-.78.74-1.761 1.22-3.022 1.22zm-.9 1.897c1.581 0 2.841-.419 3.922-1.518 0 .6.1.919.24 1.359h2.477c-.22-.54-.3-1.319-.3-2.598V7.878c0-2.48-.978-3.838-3.818-3.838-2.201 0-3.981.879-5.119 1.918l1.198 1.54c.9-.72 2.1-1.441 3.581-1.441 1.181 0 1.741.461 1.741 1.521v.32c-4.962.56-6.92 2.101-6.92 4.402 0 1.759 1.279 2.717 2.998 2.717zM206.72.06h2.478v14.798h-2.478z" />
    </symbol>

    <!-- Content View Icon -->
    <symbol id="navbar-content-view" viewBox="0 0 24 24">
        <path fill=“currentColor” d="M9 7.968H4c-1.104 0-2-.595-2-1.326V3.327c0-.731.896-1.326 2-1.326h5c1.104 0 2 .595 2 1.326v3.315c0 .731-.896 1.326-2 1.326zM4 3.327v3.315h4.997L9 3.327H4zm16 4.641h-5c-1.104 0-2-.595-2-1.326V3.327c0-.731.896-1.326 2-1.326h5c1.104 0 2 .595 2 1.326v3.315c0 .731-.896 1.326-2 1.326zm-5-4.641v3.315h4.997L20 3.327h-5zM9 14.968H4c-1.104 0-2-.595-2-1.326v-3.315c0-.731.896-1.326 2-1.326h5c1.104 0 2 .595 2 1.326v3.315c0 .731-.896 1.326-2 1.326zm-5-4.641v3.315h4.997L9 10.327H4zm16 4.641h-5c-1.104 0-2-.595-2-1.326v-3.315c0-.731.896-1.326 2-1.326h5c1.104 0 2 .595 2 1.326v3.315c0 .731-.896 1.326-2 1.326zm-5-4.641v3.315h4.997L20 10.327h-5zM9 21.968H4c-1.104 0-2-.595-2-1.326v-3.315c0-.731.896-1.326 2-1.326h5c1.104 0 2 .595 2 1.326v3.315c0 .731-.896 1.326-2 1.326zm-5-4.641v3.315h4.997L9 17.327H4zm16 4.641h-5c-1.104 0-2-.595-2-1.326v-3.315c0-.731.896-1.326 2-1.326h5c1.104 0 2 .595 2 1.326v3.315c0 .731-.896 1.326-2 1.326zm-5-4.641v3.315h4.997L20 17.327h-5z" fill-rule="nonzero" />
    </symbol>

    <!-- Account Settings Icon -->
    <symbol id="navbar-account-settings" viewBox="0 0 24 24">
        <path fill="currentColor" d="M8.251 16c0-2.301 1.449-3.75 3.75-3.75s3.75 1.449 3.75 3.75h-7.5z" />
        <circle fill="currentColor" cx="12.001" cy="8.5" r="2.5" />
        <path fill="currentColor" d="M12.001 23c-9.886 0-10-16.306-10-17 0-.363.197-.697.514-.874l9-5c.303-.168.669-.168.972 0l9 5c.317.176.514.51.514.874 0 .694-.114 17-10 17zM4.017 6.58C4.126 9.341 5.004 21 12.001 21s7.875-11.658 7.984-14.42l-7.984-4.437L4.017 6.58z" />
    </symbol>

    <!-- Content Access Admin Icon -->
    <symbol id="navbar-content-access" viewBox="0 0 24 24">
        <g fill="currentColor">
            <path d="M2 2.002h10v4h4v4.007h2V4.587L13.414.002H2c-1.103 0-2 .896-2 2v18c0 1.103.897 2 2 2h8v-2H2v-18z" />
            <path d="M8 12.418l1.293 1.293c.391.39 1.023.39 1.414 0l3-3-1.414-1.413L10 11.59l-1.293-1.292c-.391-.392-1.023-.392-1.414 0L6 11.59V8.004H4v9h6v-1.998l.002-.002H6v-.586l2-2zM24.002 19v-2H22.9c-.13-.638-.385-1.229-.733-1.753l.784-.785-1.414-1.413-.785.784c-.524-.347-1.115-.602-1.751-.731V12h-2v1.102c-.637.13-1.229.385-1.753.731l-.783-.783-1.414 1.415.783.783c-.348.524-.602 1.115-.732 1.752H12v2h1.102c.13.639.384 1.229.732 1.754l-.784.785 1.415 1.415.783-.786c.525.348 1.116.603 1.753.733v1.102h2V22.9c.637-.13 1.229-.385 1.753-.734l.784.784 1.413-1.414-.784-.783c.349-.525.603-1.116.733-1.753h1.102zM18 20c-1.105 0-2-.896-2-2s.895-2 2-2c1.104 0 2 .896 2 2s-.896 2-2 2z" />
        </g>
    </symbol>

    <!-- Content Publishing Icon -->
    <symbol id="navbar-content-publishing" viewBox="0 0 24 24">
        <g fill="currentColor">
            <path d="M11 15.006h-1v-3H8v3H7v-7H5v7H4v2h8v-5.004h1v-1.996h-2z" />
            <path d="M2 2.002h10v4h4v6h2V4.588L13.414.003H2c-1.103 0-2 .897-2 2v18.001c0 1.103.897 2 2 2h10v-2H2V2.002zm17 12.584l-4.707 4.708 1.414 1.414L18 18.415v5.587h2v-5.587l2.293 2.293 1.414-1.414z" />
        </g>
    </symbol>

    <!-- Client Admin Icon -->
    <symbol id="navbar-client-admin" viewBox="0 0 24 24">
        <path fill="currentColor" d="M1 20h22v2H1zm1-10h20c.449 0 .844-.3.964-.733s-.063-.893-.449-1.124l-10-6c-.317-.189-.712-.189-1.029 0l-10 6c-.386.231-.57.691-.45 1.124.12.433.515.733.964.733zm10-5.833L18.39 8H5.61L12 4.167zM22 13v-2H2v2h1v4H2v2h20v-2h-1v-4h1zm-9 0h2v4h-2v-4zm-2 4H9v-4h2v4zm-6-4h2v4H5v-4zm14 4h-2v-4h2v4z" />
    </symbol>

    <!-- System Admin Icon -->
    <symbol id="navbar-system-admin" viewBox="0 0 24 24">
        <path fill="currentColor" d="M3 3h5v2H3zm0 6h5v2H3zm0 6h5v2H3z" />
        <circle fill="currentColor" cx="13" cy="4" r="1" />
        <circle fill="currentColor" cx="16" cy="4" r="1" />
        <path fill="currentColor" d="M10 18H2v-4h8v-2H2V8h15.999l-.001 2H20V2c0-1.104-.896-2-2-2H2C.896 0 0 .896 0 2v16c0 1.103.896 2 2 2h8v-2zM2 2h16l-.001 4H2V2z" />
        <path fill="currentColor" d="M24.002 19v-2H22.9c-.131-.638-.385-1.229-.733-1.754l.784-.784-1.414-1.414-.785.784c-.523-.347-1.114-.602-1.751-.73V12h-2v1.102c-.638.129-1.229.384-1.753.731l-.783-.783-1.414 1.414.783.783c-.348.524-.602 1.116-.732 1.753H12v2h1.102c.131.638.385 1.229.732 1.754l-.783.784 1.415 1.413.782-.784c.525.348 1.117.603 1.754.731v1.103h2v-1.103c.637-.13 1.229-.385 1.753-.732l.784.783 1.413-1.415-.784-.782c.348-.524.602-1.115.732-1.752h1.102zM18 20c-1.105 0-2-.896-2-2s.895-2 2-2c1.104 0 2 .896 2 2s-.896 2-2 2z" />
    </symbol>

    <!-- User Guide Icon -->
    <symbol id="navbar-user-guide" viewBox="0 0 24 24">
        <path fill="currentColor" d="M8 18.001H6v-16h10v6h2v-7c0-.552-.447-1-1-1H1c-.553 0-1 .448-1 1v18c0 .552.447 1 1 1h7v-2zm-4 0H2v-16h2v16z" />
        <path fill="currentColor" d="M17 24.001c-3.859 0-7-3.14-7-7s3.141-7 7-7 7 3.14 7 7-3.141 7-7 7zm0-12c-2.757 0-5 2.243-5 5s2.243 5 5 5 5-2.243 5-5-2.243-5-5-5z" />
        <path fill="currentColor" d="M16 17.001h2v4h-2z" />
        <circle fill="currentColor" cx="17" cy="15.001" r="1" />
    </symbol>

    <!-- Contact Support Icon -->
    <symbol id="navbar-contact-support" viewBox="0 0 24 24">
        <path fill="currentColor" d="M20 7H4c-1.103 0-2 .897-2 2v9c0 1.103.897 2 2 2h16c1.103 0 2-.897 2-2V9c0-1.103-.897-2-2-2zm-1.887 2L12 12.82 5.887 9h12.226zM4 18v-7.821l7.47 4.669c.162.101.346.152.53.152s.368-.051.53-.152l7.47-4.67.001 7.822H4z" />
    </symbol>

    <!-- Log Out Icon -->
    <symbol id="navbar-log-out" viewBox="0 0 24 24">
        <path fill="currentColor" d="M18 22H7c-1.103 0-2-.897-2-2v-3h2v3h11V4H7v3H5V4c0-1.102.897-2 2-2h11c1.103 0 2 .898 2 2v16c0 1.103-.897 2-2 2z" />
        <path fill="currentColor" d="M11.707 7.292l-1.414 1.416L12.59 11H4v2h8.582l-2.29 2.294 1.416 1.412 4.706-4.715z" />
    </symbol>

    <!-- Filter Icon -->
    <symbol id="action-icon-filter" viewBox="0 0 24 24">
        <path fill="currentColor" d="M18 2H6c-1.104 0-2 .898-2 2v4c0 .256.098.512.293.707L9 13.415V21c0 .404.244.769.617.924.124.052.254.076.383.076.26 0 .516-.102.707-.293l4-4c.188-.187.293-.441.293-.707v-3.586l4.707-4.707c.195-.195.293-.45.293-.707V4c0-1.102-.896-2-2-2zm-4.707 10.293c-.188.188-.293.442-.293.707v3.586l-2 2V13c0-.265-.105-.52-.293-.707L6 7.586V4h12v3.586l-4.707 4.707z" />
    </symbol>

    <!-- Add Icon -->
    <symbol id="action-icon-add" viewBox="0 0 24 24">
        <path fill="currentColor" d="M21 11.001h-8v-8h-2v8H3v2h8v8h2v-8h8z" />
    </symbol>

    <!-- Edit Icon -->
    <symbol id="action-icon-edit" viewBox="0 0 24 24">
        <path fill="currentColor" d="M20.821 3.179C20.061 2.418 19.049 2 17.974 2c-1.074 0-2.086.418-2.846 1.179L3.719 14.587s-.001.003-.003.004c-.081.082-.219.298-.261.461L2.03 20.756c-.086.34.015.702.263.949l.001.001.001.001c.248.248.608.349.949.264l5.704-1.427c.163-.042.38-.18.461-.261.001-.001.004-.003.004-.003L20.822 8.873c.76-.761 1.179-1.771 1.178-2.847 0-1.075-.418-2.086-1.178-2.847h-.001zm-6.41 3.549l2.863 2.863-8.568 8.568-2.863-2.863 8.568-8.568zM4.375 19.626l.595-2.374 1.78 1.781-2.375.593zM19.409 4.594c.764.765.764 2.099 0 2.864l-.719.72-2.866-2.865.721-.719c.765-.764 2.099-.765 2.864 0z" />
    </symbol>

    <!-- Cancel Icon -->
    <symbol id="action-icon-cancel" viewBox="0 0 24 24">
        <path fill="currentColor" d="M20.707 4.707l-1.414-1.414L12 10.586 4.707 3.293 3.293 4.707 10.586 12l-7.293 7.293 1.414 1.414L12 13.414l7.293 7.293 1.414-1.414L13.414 12z" />
    </symbol>

    <!-- Expand Icon -->
    <symbol id="action-icon-expand" viewBox="0 0 24 24">
        <path fill="currentColor" d="M12 19.585l-5.293-5.293-1.414 1.414L12 22.413l6.707-6.707-1.414-1.414zM5.293 8.292l1.414 1.414L12 4.413l5.293 5.293 1.414-1.414L12 1.585z" />
    </symbol>

    <!-- Collapse Icon -->
    <symbol id="action-icon-collapse" viewBox="0 0 24 24">
        <path fill="currentColor" d="M12 7.586L6.707 2.293 5.293 3.707 12 10.414l6.707-6.707-1.414-1.414zM5.293 20.293l1.414 1.414L12 16.414l5.293 5.293 1.414-1.414L12 13.586z" />
    </symbol>

    <!-- Add User Icon -->
    <symbol id="action-icon-add-user" viewBox="0 0 24 24">
        <path fill="currentColor" d="M8.002 16.006c-2.205 0-4-1.795-4-4s1.795-4 4-4 4 1.795 4 4-1.794 4-4 4zm0-6c-1.104 0-2 .896-2 2 0 1.103.896 2 2 2s2-.897 2-2c0-1.104-.896-2-2-2zm8 14h-16v-1c0-3.533 3.289-6 8-6s8 2.467 8 6v1zm-13.841-2h11.684c-.599-1.808-2.834-3-5.842-3s-5.244 1.192-5.842 3zm19.841-15h-3v-3h-2v3h-3v2h3v3h2v-3h3z" />
    </symbol>

    <!-- Add Group Icon -->
    <symbol id="action-icon-add-group" viewBox="0 0 24 24">
        <g fill="currentColor">
            <path d="M4.001 22c0-.702.127-1.373.35-2H3.335C1.494 20 .001 21.159.001 23v1h4v-2zm3.592-5.491c0-.003.001-.006.001-.009 0-1.381-1.12-2.5-2.501-2.5-1.38 0-2.499 1.119-2.499 2.5 0 1.291.981 2.34 2.235 2.474.638-1.086 1.604-1.954 2.764-2.465zM19.093 14c-1.38 0-2.499 1.119-2.499 2.5 0 .035.009.068.01.103 1.08.522 1.978 1.356 2.58 2.389 1.338-.049 2.41-1.142 2.41-2.491 0-1.382-1.12-2.501-2.501-2.501zm1.574 6h-1.016c.223.627.35 1.298.35 2v2h4v-1c0-1.841-1.493-3-3.334-3zM6.001 24h12v-2c0-1.916-1.349-3.513-3.147-3.904-.811.566-1.792.904-2.853.904-1.061 0-2.043-.338-2.853-.904-1.798.391-3.147 1.988-3.147 3.904v2z" fill-rule="nonzero" />
            <circle cx="12.001" cy="14" r="3" />
            <path d="M22.002 7.006h-3v-3h-2v3h-3v2h3v3h2v-3h3v-2z" fill-rule="nonzero" />
        </g>
    </symbol>

    <!-- User Icon -->
    <symbol id="action-icon-user" viewBox="0 0 24 24">
        <path fill="currentColor" d="M12.002 12.006c-2.206 0-4-1.794-4-4 0-2.205 1.794-4 4-4s4 1.795 4 4c0 2.206-1.794 4-4 4zm0-6c-1.103 0-2 .896-2 2 0 1.103.897 2 2 2s2-.897 2-2c0-1.104-.897-2-2-2zm8 14h-16v-1c0-3.533 3.29-6 8-6s8 2.467 8 6v1zm-13.841-2h11.683c-.598-1.808-2.833-3-5.841-3s-5.244 1.192-5.842 3z" />
    </symbol>

    <!-- Users/Group Icon -->
    <symbol id="action-icon-users" viewBox="0 0 24 24">
        <path fill="currentColor" d="M12.002 12.006c-2.206 0-4-1.794-4-4 0-2.205 1.794-4 4-4s4 1.795 4 4c0 2.206-1.794 4-4 4zm0-6c-1.103 0-2 .896-2 2 0 1.103.897 2 2 2s2-.897 2-2c0-1.104-.897-2-2-2zm6.777 14H5.225v-1c0-3.533 2.787-6 6.777-6s6.777 2.467 6.777 6v1zm-11.725-2h9.897c-.507-1.808-2.4-3-4.948-3-2.548 0-4.442 1.192-4.949 3zM4.021 18c0-.695.098-1.365.275-2H3.088C1.546 16 .291 17.346.291 19v1h3.73v-2zm3.502-6.067C7.266 10.827 6.278 10 5.093 10c-1.38 0-2.499 1.119-2.499 2.5 0 1.248.917 2.273 2.111 2.461.615-1.271 1.6-2.327 2.818-3.028zM20.918 16h-1.212c.177.635.276 1.305.276 2v2h3.745v-1c0-1.655-1.26-3-2.809-3zm-1.825-6c-1.22 0-2.232.876-2.452 2.032 1.149.703 2.078 1.726 2.665 2.946 1.279-.109 2.288-1.171 2.288-2.479 0-1.38-1.12-2.499-2.501-2.499z" fill-rule="nonzero" />
    </symbol>

    <!-- Delete Icon -->
    <symbol id="action-icon-delete" viewBox="0 0 24 24">
        <g fill="currentColor">
            <path d="M5 20c0 1.103.897 2 2 2h10c1.103 0 2-.897 2-2V8H5v12zm2-10h10l.001 10H7V10zm8-5V3H9v2H3v2h18V5z" />
            <path d="M9 12h2v6H9zm4 0h2v6h-2z" />
        </g>
    </symbol>

    <!-- Remove Icon -->
    <symbol id="action-icon-remove" viewBox="0 0 24 24">
        <path fill="currentColor" d="M20.707 4.707l-1.414-1.414L12 10.586 4.707 3.293 3.293 4.707 10.586 12l-7.293 7.293 1.414 1.414L12 13.414l7.293 7.293 1.414-1.414L13.414 12z" />
    </symbol>

    <!-- Reports Icon -->
    <symbol id="action-icon-reports" viewBox="0 0 24 24">
        <g fill="currentColor">
            <path d="M17.414 0H10C8.897 0 8 .898 8 2v14c0 1.103.897 2 2 2h10c1.103 0 2-.897 2-2V4.586L17.414 0zm2.587 16H10V2h6v4h4l.001 10z" />
            <path d="M7 3H5v16c0 1.103.897 2 2 2h12v-2H7V3z" />
            <path d="M4 6H2v16c0 1.103.897 2 2 2h12v-2H4V6z" />
        </g>
    </symbol>

    <!-- Expand Card Icon -->
    <symbol id="action-icon-expand-card" viewBox="0 0 24 24">
        <path fill="currentColor" d="M12 17.416L3.586 9.001 5 7.587l7 7 7-7 1.414 1.414z" />
        <path fill="currentColor" d="M12 12.416L3.586 4.001 5 2.587l7 7 7-7 1.414 1.414zm0 10l-8.414-8.415L5 12.587l7 7 7-7 1.414 1.414z" />
    </symbol>

</svg>
