<svg style="display:none;">

    <!-- SVG's have been optimized at: https://jakearchibald.github.io/svgomg/ -->

    <!-- Content View Icon -->
    <symbol id="navbar-content-view" viewBox="0 0 24 24">
        <path fill=“currentColor” d="M9 7.968H4c-1.104 0-2-.595-2-1.326V3.327c0-.731.896-1.326 2-1.326h5c1.104 0 2 .595 2 1.326v3.315c0 .731-.896 1.326-2 1.326zM4 3.327v3.315h4.997L9 3.327H4zm16 4.641h-5c-1.104 0-2-.595-2-1.326V3.327c0-.731.896-1.326 2-1.326h5c1.104 0 2 .595 2 1.326v3.315c0 .731-.896 1.326-2 1.326zm-5-4.641v3.315h4.997L20 3.327h-5zM9 14.968H4c-1.104 0-2-.595-2-1.326v-3.315c0-.731.896-1.326 2-1.326h5c1.104 0 2 .595 2 1.326v3.315c0 .731-.896 1.326-2 1.326zm-5-4.641v3.315h4.997L9 10.327H4zm16 4.641h-5c-1.104 0-2-.595-2-1.326v-3.315c0-.731.896-1.326 2-1.326h5c1.104 0 2 .595 2 1.326v3.315c0 .731-.896 1.326-2 1.326zm-5-4.641v3.315h4.997L20 10.327h-5zM9 21.968H4c-1.104 0-2-.595-2-1.326v-3.315c0-.731.896-1.326 2-1.326h5c1.104 0 2 .595 2 1.326v3.315c0 .731-.896 1.326-2 1.326zm-5-4.641v3.315h4.997L9 17.327H4zm16 4.641h-5c-1.104 0-2-.595-2-1.326v-3.315c0-.731.896-1.326 2-1.326h5c1.104 0 2 .595 2 1.326v3.315c0 .731-.896 1.326-2 1.326zm-5-4.641v3.315h4.997L20 17.327h-5z" fill-rule="nonzero" />
    </symbol>

    <!-- Account Settings Icon -->
    <symbol id="navbar-account-settings" viewBox="0 0 24 24">
        <path fill="currentColor" d="M8.251 16c0-2.301 1.449-3.75 3.75-3.75s3.75 1.449 3.75 3.75h-7.5z" />
        <circle fill="currentColor" cx="12.001" cy="8.5" r="2.5" />
        <path fill="currentColor" d="M12.001 23c-9.886 0-10-16.306-10-17 0-.363.197-.697.514-.874l9-5c.303-.168.669-.168.972 0l9 5c.317.176.514.51.514.874 0 .694-.114 17-10 17zM4.017 6.58C4.126 9.341 5.004 21 12.001 21s7.875-11.658 7.984-14.42l-7.984-4.437L4.017 6.58z" />
    </symbol>

    <!-- Content Access Admin Icon -->
    <symbol id="navbar-content-access" viewBox="0 0 24 24">
        <g fill="currentColor">
            <path d="M2 2.002h10v4h4v4.007h2V4.587L13.414.002H2c-1.103 0-2 .896-2 2v18c0 1.103.897 2 2 2h8v-2H2v-18z" />
            <path d="M8 12.418l1.293 1.293c.391.39 1.023.39 1.414 0l3-3-1.414-1.413L10 11.59l-1.293-1.292c-.391-.392-1.023-.392-1.414 0L6 11.59V8.004H4v9h6v-1.998l.002-.002H6v-.586l2-2zM24.002 19v-2H22.9c-.13-.638-.385-1.229-.733-1.753l.784-.785-1.414-1.413-.785.784c-.524-.347-1.115-.602-1.751-.731V12h-2v1.102c-.637.13-1.229.385-1.753.731l-.783-.783-1.414 1.415.783.783c-.348.524-.602 1.115-.732 1.752H12v2h1.102c.13.639.384 1.229.732 1.754l-.784.785 1.415 1.415.783-.786c.525.348 1.116.603 1.753.733v1.102h2V22.9c.637-.13 1.229-.385 1.753-.734l.784.784 1.413-1.414-.784-.783c.349-.525.603-1.116.733-1.753h1.102zM18 20c-1.105 0-2-.896-2-2s.895-2 2-2c1.104 0 2 .896 2 2s-.896 2-2 2z" />
        </g>
    </symbol>

    <!-- Content Publishing Icon -->
    <symbol id="navbar-content-publishing" viewBox="0 0 24 24">
        <g fill="currentColor">
            <path d="M11 15.006h-1v-3H8v3H7v-7H5v7H4v2h8v-5.004h1v-1.996h-2z" />
            <path d="M2 2.002h10v4h4v6h2V4.588L13.414.003H2c-1.103 0-2 .897-2 2v18.001c0 1.103.897 2 2 2h10v-2H2V2.002zm17 12.584l-4.707 4.708 1.414 1.414L18 18.415v5.587h2v-5.587l2.293 2.293 1.414-1.414z" />
        </g>
    </symbol>

    <!-- Client Admin Icon -->
    <symbol id="navbar-client-admin" viewBox="0 0 24 24">
        <path fill="currentColor" d="M1 20h22v2H1zm1-10h20c.449 0 .844-.3.964-.733s-.063-.893-.449-1.124l-10-6c-.317-.189-.712-.189-1.029 0l-10 6c-.386.231-.57.691-.45 1.124.12.433.515.733.964.733zm10-5.833L18.39 8H5.61L12 4.167zM22 13v-2H2v2h1v4H2v2h20v-2h-1v-4h1zm-9 0h2v4h-2v-4zm-2 4H9v-4h2v4zm-6-4h2v4H5v-4zm14 4h-2v-4h2v4z" />
    </symbol>

    <!-- System Admin Icon -->
    <symbol id="navbar-system-admin" viewBox="0 0 24 24">
        <path fill="currentColor" d="M3 3h5v2H3zm0 6h5v2H3zm0 6h5v2H3z" />
        <circle fill="currentColor" cx="13" cy="4" r="1" />
        <circle fill="currentColor" cx="16" cy="4" r="1" />
        <path fill="currentColor" d="M10 18H2v-4h8v-2H2V8h15.999l-.001 2H20V2c0-1.104-.896-2-2-2H2C.896 0 0 .896 0 2v16c0 1.103.896 2 2 2h8v-2zM2 2h16l-.001 4H2V2z" />
        <path fill="currentColor" d="M24.002 19v-2H22.9c-.131-.638-.385-1.229-.733-1.754l.784-.784-1.414-1.414-.785.784c-.523-.347-1.114-.602-1.751-.73V12h-2v1.102c-.638.129-1.229.384-1.753.731l-.783-.783-1.414 1.414.783.783c-.348.524-.602 1.116-.732 1.753H12v2h1.102c.131.638.385 1.229.732 1.754l-.783.784 1.415 1.413.782-.784c.525.348 1.117.603 1.754.731v1.103h2v-1.103c.637-.13 1.229-.385 1.753-.732l.784.783 1.413-1.415-.784-.782c.348-.524.602-1.115.732-1.752h1.102zM18 20c-1.105 0-2-.896-2-2s.895-2 2-2c1.104 0 2 .896 2 2s-.896 2-2 2z" />
    </symbol>

    <!-- User Guide Icon -->
    <symbol id="navbar-user-guide" viewBox="0 0 24 24">
        <path fill="currentColor" d="M8 18.001H6v-16h10v6h2v-7c0-.552-.447-1-1-1H1c-.553 0-1 .448-1 1v18c0 .552.447 1 1 1h7v-2zm-4 0H2v-16h2v16z" />
        <path fill="currentColor" d="M17 24.001c-3.859 0-7-3.14-7-7s3.141-7 7-7 7 3.14 7 7-3.141 7-7 7zm0-12c-2.757 0-5 2.243-5 5s2.243 5 5 5 5-2.243 5-5-2.243-5-5-5z" />
        <path fill="currentColor" d="M16 17.001h2v4h-2z" />
        <circle fill="currentColor" cx="17" cy="15.001" r="1" />
    </symbol>

    <!-- Contact Support Icon -->
    <symbol id="navbar-contact-support" viewBox="0 0 24 24">
        <path fill="currentColor" d="M20 7H4c-1.103 0-2 .897-2 2v9c0 1.103.897 2 2 2h16c1.103 0 2-.897 2-2V9c0-1.103-.897-2-2-2zm-1.887 2L12 12.82 5.887 9h12.226zM4 18v-7.821l7.47 4.669c.162.101.346.152.53.152s.368-.051.53-.152l7.47-4.67.001 7.822H4z" />
    </symbol>

    <!-- Log Out Icon -->
    <symbol id="navbar-log-out" viewBox="0 0 24 24">
        <path fill="currentColor" d="M18 22H7c-1.103 0-2-.897-2-2v-3h2v3h11V4H7v3H5V4c0-1.102.897-2 2-2h11c1.103 0 2 .898 2 2v16c0 1.103-.897 2-2 2z" />
        <path fill="currentColor" d="M11.707 7.292l-1.414 1.416L12.59 11H4v2h8.582l-2.29 2.294 1.416 1.412 4.706-4.715z" />
    </symbol>

</svg> 